<?xml version="1.0" encoding="UTF-8"?>
<svg id="PRINT" xmlns="http://www.w3.org/2000/svg" viewBox="0 0 152 166.16">
  <defs>
    <style>
      .cls-1 {
        stroke-width: .11px;
      }

      .cls-1, .cls-2 {
        stroke: #3f3227;
      }

      .cls-1, .cls-2, .cls-3, .cls-4, .cls-5, .cls-6, .cls-7, .cls-8, .cls-9, .cls-10, .cls-11 {
        fill: none;
      }

      .cls-1, .cls-2, .cls-4, .cls-5, .cls-7, .cls-8, .cls-9, .cls-11 {
        stroke-linecap: round;
        stroke-linejoin: round;
      }

      .cls-2 {
        stroke-width: .12px;
      }

      .cls-3, .cls-12, .cls-13, .cls-14, .cls-15, .cls-16, .cls-17 {
        stroke-width: 0px;
      }

      .cls-4 {
        stroke-width: .18px;
      }

      .cls-4, .cls-5, .cls-7 {
        stroke: #2e2521;
      }

      .cls-5 {
        stroke-width: .18px;
      }

      .cls-6 {
        stroke-width: .18px;
      }

      .cls-6, .cls-10 {
        stroke: #292727;
        stroke-miterlimit: 10;
      }

      .cls-7 {
        stroke-width: .15px;
      }

      .cls-8 {
        stroke-width: .26px;
      }

      .cls-8, .cls-9, .cls-11 {
        stroke: #de9efb;
      }

      .cls-9 {
        stroke-width: .4px;
      }

      .cls-10 {
        stroke-width: .14px;
      }

      .cls-11 {
        stroke-width: .25px;
      }

      .cls-12 {
        fill: #2e2521;
      }

      .cls-13 {
        fill: #de9efb;
      }

      .cls-14 {
        fill: #d58af3;
      }

      .cls-15 {
        fill: #8479f2;
      }

      .cls-16 {
        fill: #fff;
      }

      .cls-17 {
        fill: #f0c66c;
      }
    </style>
  </defs>
  <rect class="cls-3" width="152" height="166.16"/>
  <g>
    <path class="cls-15" d="M135.43,127.4c-.52-2.49-1.61-4.85-3.34-6.78-1.51-1.68-3.59-2.86-5.85-3.07.4-4.26.53-8.55.38-12.82-.13-3.82-.53-7.77-2.52-11.07-1.7-2.81-4.44-4.9-7.29-6.63-7.96-4.85-17.28-7.52-24.72-13.08-7.53-5.63-12.68-14.13-14.11-23.22v-.57c-.01.09-.03.19-.04.28-.01-.09-.03-.19-.04-.28v.57c-1.43,9.09-6.58,17.59-14.11,23.22-7.44,5.57-16.76,8.23-24.72,13.08-2.85,1.74-5.58,3.82-7.29,6.63-2,3.29-2.39,7.25-2.52,11.07-.15,4.28-.02,8.56.38,12.82-2.48.18-4.34,1.39-5.85,3.07-3.15,3.51-4.62,9.3-3.36,13.93,3.11,11.46,1.9,13.68,1.4,16.5h56.15s56.07,0,56.07,0c-1.03-3.84-.74-7.95.09-11.8.41-1.91,1.21-3.66,1.48-5.61.29-2.07.24-4.2-.19-6.24Z"/>
    <path class="cls-7" d="M13.48,69.99c6.57-2.61,11.48-8.39,14.53-14.77,3.05-6.38,4.46-13.4,5.85-20.33,17.12-1.34,32.61-11.28,40.63-26.46"/>
    <path class="cls-11" d="M129.88,100.47c-3.11-3.23-8.39-3.71-14.27-1.88-.34-3.35-1.54-6.25-3.67-8.47-8.21-8.53-27.13-3.63-42.26,10.93-15.13,14.57-20.74,33.29-12.53,41.82,6.92,7.18,21.43,4.84,34.88-4.78,6.05,5.17,18.8,1.63,29.06-8.25,10.62-10.23,14.56-23.37,8.8-29.36Z"/>
    <path class="cls-6" d="M29.57,89.19c-.66-.66-1.86-.88-2.73-.52-1.16.48-1.31,2.01-.67,2.98.65.98,2.14,1.29,3.1.61.96-.68,1.13-2.25.3-3.08Z"/>
    <g>
      <g>
        <path class="cls-14" d="M98.2,105.1c9.77,4.92,9.48,14.31,9.81,21.12.12,1.58,1.27,2.92,2.74,3.77,1.64.83,2.76,1.7,4.08,2.87,1.32,1.17,1.77,2.57,2.4,3.95,1.94,4.78,2.59,11.24,8.59,13.37-2.3.51-.37-.12,0,0-3.32.69-6.65.94-10,.71-8.17-8.13-14.66-17.49-18.63-28.31-1.32-3.55-2.1-6.99-2.72-10.6-.32-1.88-.1-3.65.85-5.28"/>
        <path class="cls-12" d="M96.17,101.49c-.31.6-.46,1.28-.41,1.96.02.23.06.46.09.69.05.28.09.56.14.84.1-.02.19-.03.29-.04-.06-.88-.05-1.76-.03-2.61,0-.27.02-.54.03-.82-.04,0-.08-.01-.12-.02Z"/>
        <path class="cls-1" d="M57.68,112.69c-.92,1.95-1.61,4.01-2.06,6.12"/>
        <path class="cls-2" d="M95.48,101.96c-.26,1.21-.23,2.47.06,3.66"/>
        <path class="cls-17" d="M91.47,99.82c-4.55-2.46-7.72-7.1-9.95-11.65-.85-1.73-1.54-3.55-2.24-5.37-1.2-3.11-3.55-5.66-6.58-7.05-.3-.14-.61-.27-.92-.39-1.64,1.19-2.85,2.7-3.95,4.4-1.81,2.78-3.53,5.66-4.61,8.8-1.08,3.14-.22,6.14.63,9.35,3.87,2.57,5.96,4.7,11.76,4.56,1.38-.03,2.01-.27,3.35-.59.07.32.79,1.34.96,1.68,1.47,2.93,4.18,5.15,6.84,6.96,1.33.9,2.72,1.71,4.15,2.46.97-1.7,2.8-3.46,3.94-5.06,2.05-2.86,3.81-3.14,5.39-6.19-3.03.2-6.1-.47-8.77-1.92Z"/>
        <path class="cls-13" d="M81.52,88.17c-.8-1.64-1.47-3.37-2.14-5.1-1.34-3.49-4.06-6.3-7.53-7.68-.02,0-.05-.02-.07-.03-1.64,1.19-2.85,2.7-3.95,4.4-1.81,2.78-3.53,5.66-4.61,8.8-1.08,3.14-.22,6.14.63,9.35,3.87,2.57,5.96,4.7,11.76,4.56,1.29-.03,1.92-.23,3.08-.52,1.49-3.49,3-6.99,4.69-10.39-.68-1.11-1.3-2.25-1.85-3.39Z"/>
        <path class="cls-12" d="M81.52,88.17c-.8-1.64-1.47-3.37-2.14-5.1-1.34-3.49-4.06-6.3-7.53-7.68-.02,0-.05-.02-.07-.03-1.64,1.19-2.85,2.7-3.95,4.4-1.81,2.78-3.53,5.66-4.61,8.8-1.08,3.14-.22,6.14.63,9.35,3.87,2.57,5.96,4.7,11.76,4.56,1.29-.03,1.92-.23,3.08-.52,1.49-3.49,3-6.99,4.69-10.39-.68-1.11-1.3-2.25-1.85-3.39Z"/>
        <path class="cls-13" d="M54.85,103.02c-.78,1.37-1.61,2.68-2.51,3.83-1.72,2.2-3.82,4.11-5.29,6.49-1.84,3-2.53,6.55-3.19,10.01-.86,4.53-1.72,9.06-2.59,13.59l3.44,2.95c6.15-8.66,11.71-19.6,17.79-28.93-2.74-2.45-5.34-5.08-7.66-7.93Z"/>
        <path class="cls-12" d="M66.76,84.37c-3.8-.65-7.02,1.08-8.38,5.45-1.6,3.75-3.52,13.81-6.03,17.03-1.72,2.2-3.82,4.11-5.29,6.49-1.84,3-2.53,6.55-3.19,10.01-.86,4.53-1.72,9.06-2.59,13.59l3.44,2.95c7.41-10.43,17.82-25.8,25.47-36.06,2.33-3.13,1.86-4.3,2.2-5.02,1.75-5.77-1.59-12.87-5.63-14.43Z"/>
        <path class="cls-17" d="M42.73,129.32c-.53,2.44-1.42,5.15-3.52,6.51-1.41.91-3.14,1.25-4.5,2.23-1.99,1.43-2.8,4.48-1.36,6.46l20.95,11.35s0-.05,0-.07c.04-.51-.19-.98-.57-1.32-.24-.21-.43-.49-.56-.78-.23-.51-.34-1.07-.62-1.56-.54-.96-1.6-1.48-2.56-2.01-1.31-.73-2.55-1.63-3.48-2.8-.93-1.18-1.52-2.67-1.4-4.17.06-.75.29-1.47.52-2.18,1.58-4.82,6.41-10.33,8.64-14.88-2.53.87-8.87,3.03-11.54,3.23Z"/>
        <path class="cls-2" d="M42.75,137.56c-1.55-.02-3.04,1.08-3.49,2.57-.45,1.48.2,3.22,1.5,4.06"/>
        <path class="cls-4" d="M78.41,97.96c-.85-.2-1.7-.39-2.56-.59"/>
        <path class="cls-17" d="M87.28,104.21c2.67,9.04,5.71,18.01,10.05,26.38,4.34,8.36,10.05,16.13,17.44,21.98,2.53-.5,5.02-1.26,7.55-1.76-4.15-1.44-6.53-5.71-8.4-9.69-1.88-3.98-3.94-8.32-7.92-10.2-.55-.26-1.15-.48-1.57-.93-.34-.37-.53-.85-.69-1.32-1.36-4.03-1.48-8.36-2.32-12.54-.84-4.17-2.63-8.48-6.26-10.7-2.77-1.7-4.66-1.57-7.88-1.21Z"/>
        <path class="cls-12" d="M79.42,83.15c-.71-1.83-1.79-3.5-3.21-4.86,0,0-.02-.02-.03-.02-2.41-2.3-5.26-4.09-8.09-5.86-2.95-1.85-6.23-2.89-9.18-4.74,3.37-4.25,5.33-9.59,5.53-15.01.09-2.52-.43-5.33.88-7.49-2.38-2.13-5.19-4.48-6.9-7.18-3.94,7.37-7.87,14.73-11.81,22.1-2.38,4.45-4.83,9.51-3.39,14.34,1.55,5.21,6.98,8.1,11.97,10.23,4.89,2.09,9.85,3.99,14.88,5.71l10.83-3.56c-.53-1.2-1.01-2.44-1.48-3.68Z"/>
        <path class="cls-17" d="M68.09,33.73c.99-1.8,1.16-4,.66-5.99-.5-1.99-1.74-3.81-3.19-5.26.49-1.09.13-2.5-.83-3.22.2-.64.34-1.34.11-1.97s-.91-1.14-1.55-.95c-.39.11-.68.45-.84.83-.16.37-.2.79-.25,1.19-.19,1.67.05,3.65-.74,5.14-1.29,2.42-1.42,5.26-1.64,7.99-.22,2.73-.61,5.6-2.28,7.78.83,2.87,2.97,5.05,5.62,6.44,0-1.21-.33-2.34.5-3.23.55-.59,1.43-.67,2.22-.78,1.46-.2,3.05-.74,3.71-2.05.31-.62.38-1.34.32-2.03-.13-1.51-.72-2.86-1.84-3.88Z"/>
        <path class="cls-17" d="M78.77,101.64c1.53,4.21,3.52,8.26,5.91,12.05.45.72.93,1.44,1.6,1.98,1.05.85,2.49,1.14,3.82.9,1.33-.24,2.54-.97,3.48-1.94-3.66-5.55-10.41-8-14.8-12.98Z"/>
        <path class="cls-17" d="M102.06,103.91c-1.41,1.83-3.29,3.29-5.41,4.2-.98-2.1-2.14-4.2-2.03-6.51.5-.14.99.06,1.5.17,1.28.27,2.68-.02,3.75-.77.89,1.06,1.62,1.65,2.19,2.91Z"/>
        <path class="cls-12" d="M97.99,105.92c.32.32.65.62.99.91,1.17-.8,2.22-1.79,3.09-2.92-.57-1.27-1.3-1.85-2.19-2.91-1.08.75-2.29.78-3.57.51-.22-.05-.69-.14-.91-.19.7,1.52,1.64,3.24,2.6,4.61Z"/>
        <g>
          <path class="cls-17" d="M97.12,103c.27.6.96.87,1.55.6.59-.27.84-.96.57-1.56-.27-.6-.96-.87-1.55-.6-.59.27-.84.96-.57,1.56Z"/>
          <path class="cls-5" d="M97.62,102.29c.46,0,.9.3,1.07.73"/>
          <path class="cls-17" d="M103.77,101.41s.02.05.03.07c0,.01,0,.02.01.04,0,0,0,.02,0,.02,0,.02.01.05.02.07,0,0,0,.01,0,.02,0,.03.02.07.03.1,0,.04.02.07.02.11,0,.01,0,.03,0,.04,0,0,0,.02,0,.02,0,.03,0,.06.01.09,0,.08.01.15.02.23,0,.02,0,.04,0,.05,0,.16-.02.33-.05.49,0,.03-.02.07-.02.1,0,.02,0,.04-.02.05,0,.03-.02.06-.03.09-.02.07-.05.14-.08.21-.01.03-.03.06-.05.1-.07.13-.14.25-.23.37-.07.09-.14.17-.22.25-.02.02-.04.03-.05.05-.01.01-.03.02-.04.03,0,0-.01.01-.02.02,0,0-.01.01-.02.02-.02.02-.04.04-.07.05-.13.1-.28.19-.43.26-.03.02-.07.03-.1.04-.39.15-.8.19-1.2.12-.74-.12-1.42-.61-1.75-1.35l-.23-.5-.67-1.48-.21-.46-.29-.64s-.03-.07-.04-.11c0-.02-.01-.04-.02-.05,0-.01-.01-.03-.01-.04,0-.01,0-.03-.01-.04,0,0,0,0,0-.01,0,0,0-.02,0-.03,0-.01,0-.02,0-.03,0,0,0-.01,0-.02,0-.02,0-.03-.01-.05,0-.01,0-.03,0-.04,0,0,0-.02,0-.02,0-.03-.01-.06-.02-.09,0-.02,0-.04,0-.05,0-.02,0-.03,0-.05,0-.02,0-.03,0-.05,0,0,0,0,0,0,0-.02,0-.03,0-.05,0-.02,0-.03,0-.05,0-.02,0-.03,0-.05,0-.03,0-.07,0-.1,0,0,0-.01,0-.02,0-.03,0-.05,0-.08,0,0,0-.01,0-.02,0-.03,0-.06,0-.08,0,0,0,0,0-.01.06-.82.54-1.58,1.33-1.93.88-.4,1.9-.18,2.56.48.2.2.37.43.49.7l1.4,3.08s.03.07.05.11Z"/>
          <path class="cls-12" d="M97.37,94.1c-.78.63-.9,1.77-.27,2.55s1.77.9,2.55.27c.78-.63.9-1.77.27-2.55-.63-.78-1.77-.9-2.55-.27Z"/>
          <path class="cls-12" d="M98.83,101.67c.36-.28.72-.79.74-1.25.02-.46-.16-.92-.49-1.24.49.16,1,.28,1.51.27.51,0,1.04-.16,1.43-.5.23-.2.41-.5.36-.8-.03-.16-.12-.31-.22-.44-.64-.78-1.76-.98-2.77-.9-.04,0-.09,0-.12.04-.03.03-.02.1.03.1-.38.14-.75.26-1.03.55-.28.29-.48.68-.49,1.09,0,.19.03.38.07.56.15.67.69,1.83.97,2.52Z"/>
          <path class="cls-5" d="M100.82,101.14c.27.23.46.55.54.9.08.35.05.72-.09,1.04"/>
          <path class="cls-5" d="M102.25,100.41c.02.69.41,1.36,1,1.72"/>
          <path class="cls-5" d="M101.34,101.79c.19.02.39,0,.57-.06.18-.07.34-.19.44-.35"/>
        </g>
        <path class="cls-12" d="M87.07,96.43c.13.83-.18,1.66-.49,2.44-1.24,3.16-2.8,6.45-5.36,8.67.81,2.11,1.64,3.18,2.42,4.63.79,1.48,1.57,3.01,2.95,3.96,1.39.95,3.16.93,4.6.07-.47-2.32-.48-3.46.11-5.2s2.18-3.24,4.02-3.28c1.71-.04,3.25,1.16,4.12,2.63-.68-1.91-2.15-3.52-4-4.36-.87-.39-1.81-.63-2.59-1.17-.78-.54-1.37-1.54-1.06-2.43.26-.75.83-.93,1.63-1.05.79-.12,1.76-.04,2.58.13,0,0-6.51-2.88-8.94-5.03Z"/>
        <path class="cls-13" d="M126.4,154.95c-.49-.36-.97-.78-1.5-1.08,1.1.32,2.2.62,3.31.9.19.05.4.1.59.02.18-.08.26-.31.13-.46l-5.92-2.53c1.05.19,2.26.34,3.07-.36.05-.05.1-.1.12-.16.04-.13-.05-.27-.17-.33-.12-.06-.26-.06-.4-.06-.94.02-1.88.1-2.8-.04-.65-.09-1.3-.29-1.96-.29-.48,0-.94.11-1.39.27-.35-.13-.69-.25-1.04-.38-.52-.19-1.05-.38-1.6-.42-.55-.04-1.14.09-1.54.47-.5.47-.62,1.25-.44,1.91.17.66.6,1.23,1.05,1.75.4.45,1.06,1.52,3.9,2.35.03.06,2.09.6,2.46.54.4.38.81.76,1.29,1.03.6.34,1.36.47,1.98.16-.74-.61-1.36-1.37-1.82-2.22.98.83,2.11,1.48,3.33,1.89.31.1.73.16.9-.13-1.14-.73-2.21-1.57-3.19-2.52,1.07.66,2.24,1.19,3.47,1.46.53.11,1.13.16,1.55-.17-1.21-.32-2.36-.87-3.36-1.62Z"/>
        <path class="cls-10" d="M65.42,25.38c1.2.99,1.71,2.63,1.59,4.18-.12,1.54-.79,3-1.64,4.3"/>
      </g>
      <path class="cls-14" d="M122.5,152.04s1.31.46,2,.48c1.53.05,2.64.14,4.16.2.24,0,.33-.3.13-.42-.5-.3-1.1-.51-2.11-.65,2.9-1.02,6,.48,9.08.78.24.02.34-.3.13-.42-1.52-.86-3.14-1.56-4.81-2.08-1.12-.35-2.28-.63-3.31-1.19s-4.98-.25-6.49-2.04c-.02-.02-1.88-.57-2.14-.53-.97.16-1.63-.2-1.59.75.05,1.18,4.73,4.03,4.94,5.11Z"/>
      <path class="cls-17" d="M126.4,154.95c-.49-.36-.97-.78-1.5-1.08,1.1.32,2.2.62,3.31.9.19.05.4.1.59.02.18-.08.26-.31.13-.46l-5.92-2.53c1.05.19,2.26.34,3.07-.36.05-.05.1-.1.12-.16.04-.13-.05-.27-.17-.33-.12-.06-.26-.06-.4-.06-.94.02-1.88.1-2.8-.04-.65-.09-1.3-.29-1.96-.29-.48,0-.94.11-1.39.27-.35-.13-.69-.25-1.04-.38-.52-.19-1.05-.38-1.6-.42-.55-.04-1.14.09-1.54.47-.5.47-.62,1.25-.44,1.91.17.66.6,1.23,1.05,1.75.4.45,1.06,1.52,3.9,2.35.03.06,2.09.6,2.46.54.4.38.81.76,1.29,1.03.6.34,1.36.47,1.98.16-.74-.61-1.36-1.37-1.82-2.22.98.83,2.11,1.48,3.33,1.89.31.1.73.16.9-.13-1.14-.73-2.21-1.57-3.19-2.52,1.07.66,2.24,1.19,3.47,1.46.53.11,1.13.16,1.55-.17-1.21-.32-2.36-.87-3.36-1.62Z"/>
      <path class="cls-5" d="M121.79,150.7c-3.6-1.56-5.99-5.61-7.87-9.59-1.88-3.98-3.94-8.32-7.92-10.2-.55-.26-1.15-.48-1.57-.93-.34-.37-.53-.85-.69-1.32-1.36-4.03-1.51-11.98-4.13-17.92"/>
      <path class="cls-17" d="M35,138.02c-1.72.57-2.65,2.54-2.58,4.34.07,1.62.82,3.21,2.03,4.29,1.21,1.08,2.87,1.65,4.49,1.54,1.85-.13,2.9,1.82,3.81,3.43.77,1.35,1.23,2.99,2.52,3.84.66.44,1.46.61,2.24.74,2.7.46,5.45.61,8.19.43.32-.02.69-.08.86-.35.23-.39-.15-.88-.57-1.05-.42-.17-.91-.17-1.29-.42-.6-.38-.73-1.18-1.04-1.83-.84-1.78-3.02-2.36-4.73-3.33-1.56-.88-2.86-2.22-3.69-3.8-1.81-.26-3.66-.58-5.41-1.11-.97-.29-2-.67-2.58-1.51-.32-.45-.47-1-.61-1.53-.41-1.49-1.24-2.21-1.65-3.7Z"/>
      <path class="cls-2" d="M49.32,151.91c1.42.39,2.49,1.8,2.47,3.28,1.07-.28,2.33.53,2.55,1.61"/>
      <path class="cls-9" d="M47.3,57.78c4.61,4.78,5.84,11.93,3.05,17.71,4.61-1.36,9.95-1.04,13.97,1.38,4.02,2.42,6.38,7.09,5.11,11.25-1.54,5.08-8.14,9.89-13.67,10.89"/>
      <path class="cls-9" d="M80.72,97c-3.73-1.07-8.31-.81-11.53,1.36-3.22,2.16-5.51,5.6-6.54,9.34-.29,1.04-.56,2.23-1.49,2.78-.47.28-1.02.34-1.56.44-3.43.67-6.2,3.36-7.79,6.47s-2.14,6.64-2.51,10.11"/>
      <path class="cls-5" d="M84.54,95.79c.12.66.52,1.22.94,1.74,1.74,2.13,4.1,3.87,6.82,4.28"/>
      <path class="cls-8" d="M86.55,98.71c1.57,1.55,3.54,2.77,5.74,3.1"/>
      <path class="cls-8" d="M83.3,105.14c1.5,1.25,2.46,3.07,2.93,4.96.47,1.9.47,3.88.3,5.83"/>
      <path class="cls-8" d="M91.95,103.76c-1.01.87-1.71,2.11-1.85,3.44-.14,1.33.29,2.71,1.2,3.69"/>
    </g>
    <path class="cls-8" d="M20.21,130.94c4.57.23,9.03-2.06,12.16-5.39,3.14-3.33,5.08-7.62,6.4-12,1.48-4.92,2.2-10.38.15-15.09.84.37,1.8-.08,2.61-.5,4.88-2.52,9.78-7.5,7.36-15.66"/>
    <polygon class="cls-17" points="98.43 59.03 99.29 60.6 100.87 61.46 99.29 62.32 98.43 63.9 97.57 62.32 96 61.46 97.57 60.6 98.43 59.03"/>
    <polygon class="cls-17" points="37.59 127.9 38.39 129.36 39.85 130.15 38.39 130.95 37.59 132.41 36.8 130.95 35.34 130.15 36.8 129.36 37.59 127.9"/>
    <polygon class="cls-17" points="35.92 73.98 37.47 76.82 40.32 78.37 37.47 79.93 35.92 82.77 34.37 79.93 31.52 78.37 34.37 76.82 35.92 73.98"/>
    <polygon class="cls-17" points="38.03 62.04 38.58 63.03 39.57 63.58 38.58 64.12 38.03 65.12 37.49 64.12 36.49 63.58 37.49 63.03 38.03 62.04"/>
    <polygon class="cls-17" points="23.84 106.09 24.29 106.91 25.12 107.37 24.29 107.82 23.84 108.65 23.39 107.82 22.56 107.37 23.39 106.91 23.84 106.09"/>
    <polygon class="cls-17" points="71.56 127.46 72.03 128.33 72.91 128.81 72.03 129.29 71.56 130.16 71.08 129.29 70.21 128.81 71.08 128.33 71.56 127.46"/>
    <polygon class="cls-17" points="85.15 79.88 85.62 80.76 86.5 81.24 85.62 81.71 85.15 82.59 84.67 81.71 83.8 81.24 84.67 80.76 85.15 79.88"/>
    <polygon class="cls-17" points="39.42 122.2 39.89 123.07 40.77 123.55 39.89 124.03 39.42 124.9 38.94 124.03 38.07 123.55 38.94 123.07 39.42 122.2"/>
    <polygon class="cls-17" points="75.48 118.07 76.39 119.74 78.06 120.65 76.39 121.57 75.48 123.24 74.57 121.57 72.9 120.65 74.57 119.74 75.48 118.07"/>
    <polygon class="cls-17" points="120.93 107.23 121.63 108.5 122.9 109.19 121.63 109.89 120.93 111.16 120.24 109.89 118.97 109.19 120.24 108.5 120.93 107.23"/>
    <polygon class="cls-17" points="92.99 78.82 93.9 80.49 95.57 81.4 93.9 82.31 92.99 83.98 92.08 82.31 90.41 81.4 92.08 80.49 92.99 78.82"/>
    <polygon class="cls-17" points="118.63 112.89 120 115.4 122.51 116.77 120 118.14 118.63 120.65 117.25 118.14 114.74 116.77 117.25 115.4 118.63 112.89"/>
    <path class="cls-12" d="M26.42,79.47c-1.67-.79-3.86-.8-5.01.55-.77.9-1.02,2.15-.54,3.25.62,1.42,2.2,2.28,3.75,2.31,1.38.03,3-.71,3.66-2,.83-1.63-.36-3.41-1.86-4.12Z"/>
    <circle class="cls-16" cx="59.93" cy="130.77" r="1.06"/>
    <path class="cls-16" d="M45.28,108.57c0,.5-.41.91-.91.91s-.91-.41-.91-.91.41-.91.91-.91.91.41.91.91Z"/>
    <path class="cls-16" d="M26.56,136.66c0,.33-.27.6-.6.6s-.6-.27-.6-.6.27-.6.6-.6.6.27.6.6Z"/>
    <path class="cls-16" d="M36.83,98c0,.33-.27.6-.6.6s-.6-.27-.6-.6.27-.6.6-.6.6.27.6.6Z"/>
    <path class="cls-16" d="M82.13,72.79c0,.42-.34.76-.76.76s-.75-.34-.75-.76.34-.75.75-.75.76.34.76.75Z"/>
    <path class="cls-16" d="M89.07,75.81c0,.25-.2.45-.45.45s-.45-.2-.45-.45.2-.45.45-.45.45.2.45.45Z"/>
    <path class="cls-16" d="M117.76,107.06c0,.33-.27.6-.6.6s-.6-.27-.6-.6.27-.6.6-.6.6.27.6.6Z"/>
    <path class="cls-16" d="M116.55,124.13c0,.75-.61,1.36-1.36,1.36s-1.36-.61-1.36-1.36.61-1.36,1.36-1.36,1.36.61,1.36,1.36Z"/>
    <path class="cls-16" d="M122.29,122.62c0,.25-.2.45-.45.45s-.45-.2-.45-.45.2-.45.45-.45.45.2.45.45Z"/>
    <path class="cls-16" d="M61.89,138.32c0,.42-.34.75-.75.75s-.76-.34-.76-.75.34-.75.76-.75.75.34.75.75Z"/>
    <path class="cls-16" d="M70.05,138.32c0,.25-.2.45-.45.45s-.45-.2-.45-.45.2-.45.45-.45.45.2.45.45Z"/>
    <path class="cls-16" d="M125.92,143c0,.33-.27.6-.6.6s-.6-.27-.6-.6.27-.6.6-.6.6.27.6.6Z"/>
    <path class="cls-16" d="M96.32,144.51c0,.33-.27.6-.6.6s-.6-.27-.6-.6.27-.6.6-.6.6.27.6.6Z"/>
    <path class="cls-6" d="M137.99,99.46c-.66-.66-1.86-.88-2.73-.52-1.16.48-1.31,2.01-.67,2.98.65.98,2.14,1.29,3.1.61.96-.68,1.13-2.25.3-3.08Z"/>
    <path class="cls-13" d="M133.46,91.07c-1.4-.66-3.23-.67-4.2.46-.64.75-.85,1.8-.45,2.72.52,1.19,1.84,1.91,3.14,1.94,1.16.03,2.51-.59,3.06-1.67.69-1.37-.3-2.85-1.56-3.45Z"/>
    <polygon class="cls-17" points="128.33 134.3 128.63 134.85 129.19 135.15 128.63 135.45 128.33 136.01 128.03 135.45 127.48 135.15 128.03 134.85 128.33 134.3"/>
    <path class="cls-16" d="M131.96,126.85c0,.25-.2.45-.45.45s-.45-.2-.45-.45.2-.45.45-.45.45.2.45.45Z"/>
  </g>
</svg>