<?xml version="1.0" encoding="UTF-8"?>
<svg id="PRINT" xmlns="http://www.w3.org/2000/svg" viewBox="0 0 152 166.16">
  <defs>
    <style>
      .cls-1 {
        stroke: #bfbeef;
        stroke-width: .42px;
      }

      .cls-1, .cls-2, .cls-3, .cls-4, .cls-5, .cls-6, .cls-7 {
        fill: none;
      }

      .cls-1, .cls-3, .cls-5, .cls-6 {
        stroke-miterlimit: 10;
      }

      .cls-2, .cls-3 {
        stroke-width: .13px;
      }

      .cls-2, .cls-3, .cls-7 {
        stroke: #2d201b;
      }

      .cls-2, .cls-4, .cls-7 {
        stroke-linecap: round;
        stroke-linejoin: round;
      }

      .cls-4 {
        stroke: #422e22;
        stroke-width: .25px;
      }

      .cls-5 {
        stroke-width: .27px;
      }

      .cls-5, .cls-6 {
        stroke: #d9cabe;
      }

      .cls-6 {
        stroke-width: .27px;
      }

      .cls-7 {
        stroke-width: .17px;
      }

      .cls-8 {
        fill: #f8a4ff;
      }

      .cls-8, .cls-9, .cls-10, .cls-11, .cls-12, .cls-13, .cls-14, .cls-15 {
        stroke-width: 0px;
      }

      .cls-9 {
        fill: #2d201b;
      }

      .cls-10 {
        fill: #8ef;
      }

      .cls-11 {
        fill: #422e22;
      }

      .cls-12 {
        fill: #8f7afb;
      }

      .cls-13 {
        fill: #fff;
      }

      .cls-14 {
        fill: #fc6;
      }

      .cls-15 {
        fill: #6cc;
      }
    </style>
  </defs>
  <path class="cls-5" d="M132.12,74.28c-17.05-9.38-31.3,5.42-40.85,19.96-5.43,8.26-11.32,17.87-21.1,21.41-14.89,5.38-30.99-7.11-46.62-4.56-7.41,1.21-14.16,6.01-17.73,12.61-3.58,6.6-3.91,14.87-.88,21.74h124.07c2.3,0,8.14-8.9,9.51-10.73,11.36-15.25,15.06-43.52-1.21-56.88-1.75-1.44-3.48-2.61-5.18-3.55Z"/>
  <line class="cls-4" x1="38.77" y1="144.94" x2="28.93" y2="121.25"/>
  <path class="cls-6" d="M-17.65,110.79c3.92-8.93,14.52-14.01,23.93-14.34,8.7-.31,17.29,1.89,25.55,4.38,7.4,2.23,14.61,5.7,22.33,5.79,11.67.14,22.04-7.48,29.9-16.11,7.86-8.63,14.3-18.66,23.4-25.98,15.22-12.24,37.4-15.15,55.26-7.25"/>
  <path class="cls-4" d="M53.73,145.75c1.04-1.03,2.81-1.22,4.05-.44"/>
  <polyline class="cls-4" points="19.86 145.4 28.93 121.25 28.93 145.24"/>
  <g>
    <path class="cls-15" d="M37.07,47.78c-2.43-3.27-5.45-6.31-7.56-9.08-2.95-3.87-5.91-7.74-8.86-11.61-1.87-2.46-5.79-.99-5.6,2.09.27,4.18.53,8.35.8,12.53.19,2.93.39,5.86.56,8.8.27,4.6-.85,9.94,1.87,13.97,2.34,3.47,6.22,5.63,10.42,5.63,6.88,0,12.46-5.58,12.46-12.46,0-3.47-1.79-6.77-4.09-9.87Z"/>
    <path class="cls-10" d="M52.63,58.24c1.75-2.38,3.22-5.11,4.69-7.15,2.05-2.86,4.11-5.72,6.16-8.59,1.3-1.82-.54-4.22-2.63-3.43-2.83,1.07-5.67,2.13-8.5,3.2-1.99.75-3.98,1.51-5.97,2.25-3.13,1.16-7.06,1.51-9.28,4.25-1.91,2.35-2.58,5.49-1.69,8.4,1.45,4.76,6.49,7.44,11.26,5.99,2.4-.73,4.31-2.67,5.97-4.92Z"/>
    <path class="cls-10" d="M49.39,29.97c.1-3.38-.29-6.91-.23-9.79.07-4.04.15-8.07.22-12.11.05-2.56-3.26-3.63-4.72-1.52-1.98,2.85-3.96,5.7-5.94,8.55-1.39,2-2.77,4.01-4.17,6.01-2.19,3.13-5.68,6.02-5.99,10.04-.27,3.46,1.14,6.86,3.87,9.03,4.47,3.55,10.97,2.79,14.52-1.68,1.79-2.25,2.33-5.32,2.43-8.53Z"/>
    <path class="cls-4" d="M19.01,31.82s13.85,28.91,9.46,48.91"/>
    <path class="cls-4" d="M33.14,79.86c.12-6.5,1.35-13.1,4.57-18.74,3.23-5.64,8.63-10.23,15-11.51"/>
    <path class="cls-4" d="M35.38,80.26c.27-5.78,4.47-11.16,10.01-12.82,5.54-1.66,12.01.52,15.42,5.19"/>
    <path class="cls-10" d="M64.63,74.47c-.13-.15-.26-.31-.39-.46-2.43-2.79-5.29-5.36-8.78-6.6-4.59-1.64-17.1.56-11.05,7.91,1.73,2.1,5.08,2.65,7.39,1.21,1.53-.96,2.55-2.6,4.08-3.54,2.64-1.62,6.32-.7,8.44,1.56.34.36.64.75.91,1.16-.2-.41-.4-.82-.6-1.23Z"/>
    <path class="cls-9" d="M65.65,76.54c-.13-.25-.25-.51-.38-.76-.1-.19-.21-.38-.32-.57-.92-1.51-2.18-2.88-3.83-3.53-1.42-.55-3.87-.58-4.66.9.84.39,1.58,1.03,1.94,1.91.4.98.4,2.08.39,3.14,0,1.09-.02,2.17-.02,3.26-.01,1.53.1,3.3,1.34,4.19.6.42,1.37.55,2.09.47,2.12-.23,3.78-2.17,4.16-4.26.29-1.6-.05-3.25-.72-4.75Z"/>
    <path class="cls-4" d="M31.84,79.34c-1.23-20.13,1.28-41.49,11.86-59.05"/>
    <g>
      <path class="cls-14" d="M42.36,121.41h-23.83c-4.55,0-8.02-4.07-7.29-8.56l5.39-33.43h26.3l6.68,33.14c.92,4.57-2.58,8.84-7.24,8.84Z"/>
      <g>
        <path class="cls-4" d="M12.44,104.25c4.1.9,8.35-.94,11.64-3.53,3.29-2.6,5.91-5.94,9-8.77,3.09-2.83,6.91-5.24,11.1-5.27"/>
        <path class="cls-4" d="M44.8,89.53c-6,.47-11.33,4.63-14.22,9.91-2.89,5.28-3.6,11.53-3.1,17.54"/>
        <path class="cls-4" d="M13.7,96.1c4.4-.19,8.72-2.02,11.92-5.06,3.2-3.03,5.26-7.24,5.69-11.63"/>
        <path class="cls-9" d="M46.99,99.59c-1.48.78-2.9,1.68-4.22,2.74-1.86,1.49-3.56,3.15-4.84,5.18-1.18,1.89-2.09,3.94-3.05,5.94-.44.92-1.79,1.19-2.62.69-5.73-3.48-11.52,1.54-13.58,7.27h23.67c4.66,0,8.16-4.27,7.24-8.84l-2.61-12.97Z"/>
      </g>
    </g>
  </g>
  <path class="cls-4" d="M57.01,61.93c0,1.21-.98,2.19-2.19,2.19s-2.19-.98-2.19-2.19.98-2.19,2.19-2.19,2.19.98,2.19,2.19Z"/>
  <path class="cls-4" d="M55.17,47.51c0,.64-.52,1.15-1.15,1.15s-1.15-.52-1.15-1.15.52-1.15,1.15-1.15,1.15.52,1.15,1.15Z"/>
  <circle class="cls-4" cx="122.18" cy="86.38" r="2.88"/>
  <circle class="cls-4" cx="11.21" cy="13.36" r="2.88"/>
  <path class="cls-4" d="M130.37,95.49c0,.51-.41.92-.92.92s-.92-.41-.92-.92.41-.92.92-.92.92.41.92.92Z"/>
  <path class="cls-4" d="M9.64,19.22c0,.51-.41.92-.92.92s-.92-.41-.92-.92.41-.92.92-.92.92.41.92.92Z"/>
  <path class="cls-4" d="M45.48,121.1c0,.51-.41.92-.92.92s-.92-.41-.92-.92.41-.92.92-.92.92.41.92.92Z"/>
  <path class="cls-4" d="M10.56,128.48c0,.76-.62,1.38-1.38,1.38s-1.38-.62-1.38-1.38.62-1.38,1.38-1.38,1.38.62,1.38,1.38Z"/>
  <path class="cls-4" d="M151.6,138.4c0,1.15-.93,2.08-2.08,2.08s-2.08-.93-2.08-2.08.93-2.08,2.08-2.08,2.08.93,2.08,2.08Z"/>
  <path class="cls-4" d="M153.44,71.62c0,.57-.46,1.04-1.04,1.04s-1.04-.46-1.04-1.04.46-1.04,1.04-1.04,1.04.46,1.04,1.04Z"/>
  <path class="cls-4" d="M99.46,53.74c0,.51-.41.92-.92.92s-.92-.41-.92-.92.41-.92.92-.92.92.41.92.92Z"/>
  <path class="cls-4" d="M69.46,10.36c0,.51-.41.92-.92.92s-.92-.41-.92-.92.41-.92.92-.92.92.41.92.92Z"/>
  <path class="cls-11" d="M63.47,53.28c0,.64-.52,1.15-1.15,1.15s-1.15-.52-1.15-1.15.52-1.15,1.15-1.15,1.15.52,1.15,1.15Z"/>
  <path class="cls-11" d="M126.68,112.22c0,.7-.57,1.27-1.27,1.27s-1.27-.57-1.27-1.27.57-1.27,1.27-1.27,1.27.57,1.27,1.27Z"/>
  <path class="cls-11" d="M52.4,122.02c0,.64-.52,1.15-1.15,1.15s-1.15-.52-1.15-1.15.52-1.15,1.15-1.15,1.15.52,1.15,1.15Z"/>
  <path class="cls-11" d="M11.48,134.48c0,.51-.41.92-.92.92s-.92-.41-.92-.92.41-.92.92-.92.92.41.92.92Z"/>
  <path class="cls-11" d="M65.78,13.35c0,.45-.36.81-.81.81s-.81-.36-.81-.81.36-.81.81-.81.81.36.81.81Z"/>
  <path class="cls-11" d="M105,53.05c0,.51-.41.92-.92.92s-.92-.41-.92-.92.41-.92.92-.92.92.41.92.92Z"/>
  <path class="cls-11" d="M150.9,78.31c0,.19-.15.35-.35.35s-.35-.15-.35-.35.15-.35.35-.35.35.15.35.35Z"/>
  <polygon class="cls-14" points="43.49 24.67 44.55 26.61 46.49 27.67 44.55 28.73 43.49 30.67 42.43 28.73 40.49 27.67 42.43 26.61 43.49 24.67"/>
  <polygon class="cls-14" points="47.58 32.07 48.15 33.12 49.21 33.7 48.15 34.27 47.58 35.33 47 34.27 45.94 33.7 47 33.12 47.58 32.07"/>
  <polygon class="cls-14" points="96.37 10.02 96.95 11.07 98.01 11.65 96.95 12.22 96.37 13.28 95.8 12.22 94.74 11.65 95.8 11.07 96.37 10.02"/>
  <polygon class="cls-14" points="133.83 63.75 134.45 64.88 135.59 65.5 134.45 66.12 133.83 67.26 133.21 66.12 132.08 65.5 133.21 64.88 133.83 63.75"/>
  <polygon class="cls-14" points="138.68 67.26 139.12 68.06 139.92 68.5 139.12 68.94 138.68 69.74 138.24 68.94 137.43 68.5 138.24 68.06 138.68 67.26"/>
  <polygon class="cls-14" points="139.14 106.52 140.05 108.19 141.72 109.1 140.05 110.02 139.14 111.68 138.23 110.02 136.56 109.1 138.23 108.19 139.14 106.52"/>
  <polygon class="cls-14" points="134.99 117.58 135.33 118.22 135.96 118.56 135.33 118.91 134.99 119.54 134.64 118.91 134.01 118.56 134.64 118.22 134.99 117.58"/>
  <g>
    <ellipse class="cls-9" cx="52.75" cy="150.59" rx="37.53" ry="5.48"/>
    <ellipse class="cls-9" cx="105.35" cy="146.76" rx="37.53" ry="5.48"/>
    <path class="cls-8" d="M70.79,109.82c-1.14,12.85-14.91,25.62-18,38.21h51.79c1.81-6.61.2-14.4-3.69-20.26-2.15-3.24-5.05-6.03-7.29-9.22-2.24-3.19-3.82-7.03-2.88-10.71l-19.94,1.99Z"/>
    <path class="cls-12" d="M100.9,127.76c-2.15-3.24-5.05-6.03-7.29-9.22-.13-.19-.26-.38-.39-.58-2.25.02-4.92.03-7.17,0-.97,0-1.95-.02-2.92-.04l-14.98.09c-4.77,9.92-17.29,16.1-13.05,30.17l49.08-.16c1.81-6.63.61-14.42-3.28-20.28Z"/>
    <path class="cls-9" d="M97.36,85.27c.54-1.54.82-3.1.57-4.74-.16-1.04-.52-2-1.04-2.87-.03-.05-.06-.11-.1-.16-1.72-2.75-4.98-4.64-8.18-5.68-.55-.18-1.11-.34-1.67-.49-.4-.11-.79-.2-1.19-.29-4.33-.96-8.86-1.01-13.21-.14-1.58.32-3.14.75-4.65,1.31-3.37,1.24-6.09,3.76-7.58,6.93.86,2.03,1.73,4.06,2.59,6.1,1.23,2.9,2.55,5.79,3.34,8.84.73,2.8.93,5.69.6,8.57-.21,1.87-.66,3.74-1.46,5.44.62.79,1.34,1.51,2.12,2.09.87.66,1.84,1.02,2.86,1.38.32.11.65.23.97.35.5.14,1,.26,1.51.36.4.08.81.15,1.21.21.01,0,.11.02.14.02.01,0,.03,0,.03,0,.1.01.19.02.29.04.21.02.41.05.62.06,1.67.15,3.34.14,5.01,0,.42-.03.84-.08,1.25-.13.12-.01.23-.03.35-.04,0,0,.02,0,.03,0,.04,0,.09-.01.13-.02.2-.03.41-.06.61-.09.87-.14,1.74-.31,2.6-.51,1.71-.4,3.38-.92,5.02-1.54.88-.33,1.48-.58,2.29-.95.79-.36,1.56-.74,2.33-1.15,0,0,0,0,0,0,.17-.09.28-.28.26-.48-.03-.42-.09-.83-.16-1.24-.03-.18-.07-.36-.1-.53-.67-3.08-2.04-6.09-1.83-9.23.27-4.04,3.11-7.63,4.43-11.39Z"/>
    <path class="cls-8" d="M86.45,71.47c-2.85-1.56-5-6.3-4.1-10.03l-5.51,1.8c.07,2.22-.72,3.95-1.95,5.8-.64.97-1.93,1.82-3.04,2.14,1.61,2.15,4.39,3.23,7.08,3.3,2.69.07,5.8-.95,7.52-3.02Z"/>
    <path class="cls-9" d="M76.83,63.91c.11.92.3,1.82.79,2.56.67,1,1.96,1.26,3.02.68.86-.48,1.35-1.36,1.63-2.4-.18-1.12-.17-2.25.08-3.3l-5.51,1.8c0,.23,0,.45,0,.66Z"/>
    <path class="cls-8" d="M83.52,56.05v5.54c0,2.1-1.72,3.82-3.82,3.82s-3.82-1.72-3.82-3.82v-5.54c0-2.1,1.72-3.82,3.82-3.82,1.05,0,2.01.43,2.7,1.12.69.69,1.12,1.65,1.12,2.7Z"/>
    <path class="cls-8" d="M86.58,60.13c0,.96-.78,1.74-1.74,1.74s-1.74-.78-1.74-1.74.78-1.74,1.74-1.74,1.74.78,1.74,1.74Z"/>
    <path class="cls-8" d="M76.65,60.3c0,.96-.78,1.74-1.74,1.74s-1.74-.78-1.74-1.74.78-1.74,1.74-1.74,1.74.78,1.74,1.74Z"/>
    <path class="cls-12" d="M123.3,148.23H29.99c-5.76,0-10.48-4.72-10.48-10.48v-.62c0-5.76,4.72-10.48,10.07-10.48h93.31c6.17,0,10.89,4.72,10.89,10.48v.62c0,5.76-4.72,10.48-10.48,10.48Z"/>
    <path class="cls-8" d="M113.01,157.15c-.19-1.57-1.98-2.99-3.17-4.02-1.78-1.54-3.51-3.29-4.56-5.36.37-.66.58-1.42.58-2.23,0-2.47-1.94-4.46-4.32-4.46-1.39,0-2.63.68-3.42,1.74-3.9-.71-7.22-2.32-10.81-4.97-.17-.13-.34-.25-.52-.38-1.2,3.48-1.45,7.18-1.22,10.88,5.23.23,7.64-.42,10.81,1.99,2.41,1.84,3.58,2.69,6.03,4.44,1.06,1.08,2.52,1.85,3.94,2.44,2.23.94,4.66,1.73,6.22,3.58.32.38.61.81,1.04,1.07.43.26,1.05.28,1.36-.11.14-.17.19-.39.22-.61.2-1.58-.87-3.08-2.16-4.01Z"/>
    <path class="cls-8" d="M62.52,146.36c-1-.43-1.85-.96-2.65-1.68-.8-.71-1.54-1.51-2.47-2.04-.03,0-.06.01-.09.02-.79-1.06-2.03-1.74-3.42-1.74-2.39,0-4.32,2-4.32,4.46,0,.81.21,1.57.58,2.23-1.05,2.07-2.77,3.83-4.56,5.36-1.19,1.03-2.98,2.46-3.17,4.02-1.3.93-2.36,2.42-2.16,4.01.03.22.08.44.22.61.31.39.94.37,1.36.11.43-.26.71-.69,1.04-1.07,1.56-1.85,3.99-2.64,6.22-3.58,1.42-.6,2.87-1.37,3.94-2.44,2.46-1.75,3.62-2.6,6.03-4.44,3.13-2.39,5.53-1.77,10.65-1.99-2.44-.39-4.89-.86-7.17-1.83Z"/>
    <g>
      <path class="cls-8" d="M67.72,84.52l-20.79,24.73-3.51-7.57,30.41,3.28c1.29.14,2.22,1.29,2.08,2.58-.13,1.17-1.09,2.04-2.22,2.09l-30.56,1.38c-2.48.11-4.58-1.81-4.69-4.29-.05-1.08.29-2.09.89-2.9l.29-.39,19.39-25.84c1.84-2.46,5.33-2.95,7.79-1.11,2.46,1.84,2.95,5.33,1.11,7.79-.06.08-.13.17-.19.24Z"/>
      <path class="cls-8" d="M66.61,104.16c.89.1,7.01,1.06,8.13.74,1.93-.55,1.13-4.12,1.82-6.01.69-1.89,1.2-3.88,2.31-5.56v14.22c-.21.48-.51,1.16-.88,1.53-.73.73-1.87.84-2.9.79-1.26-.06-8.82.08-10.14.12,1.15-1.62,1.69-5.74,1.67-5.85Z"/>
    </g>
    <g>
      <path class="cls-8" d="M98.69,77.49l19.39,25.84.29.38c1.49,1.99,1.09,4.8-.9,6.29-.87.65-1.9.94-2.9.89l-30.56-1.38c-1.29-.06-2.29-1.15-2.24-2.45.05-1.17.96-2.1,2.09-2.22l30.41-3.28-3.51,7.57-20.79-24.73c-1.98-2.35-1.67-5.86.68-7.84,2.35-1.98,5.86-1.67,7.84.68.06.07.13.16.19.24Z"/>
      <path class="cls-8" d="M91.09,104.05c-.89.1-7.01,1.06-8.13.74-1.93-.55-1.13-4.12-1.82-6.01-.69-1.89-1.2-3.88-2.31-5.56v14.22c.21.48.51,1.16.88,1.53.73.73,1.87.84,2.9.79,1.26-.06,8.82.08,10.14.12-1.15-1.62-1.69-5.74-1.67-5.85Z"/>
    </g>
    <path class="cls-9" d="M63.08,75.17c2.26,4.06,2.71,9.08,1.23,13.48.97,1.2,2.39,1.85,3.93,1.93,1.54.08,3.11-.52,4.19-1.62,1.06-1.07,1.64-2.52,1.99-3.99.39-1.62.53-3.32.16-4.94-.36-1.56-1.17-2.97-1.83-4.43-.66-1.46-1.17-3.07-.87-4.65-3.1.75-6.52,1.98-8.8,4.22Z"/>
    <path class="cls-9" d="M94.98,75.35c-2.26,4.06-1.51,10.49-.02,14.89-.97,1.2-2.68,1.73-5.11,1.47-1.53-.16-3.13-1.48-4.22-2.57-1.06-1.07-1.64-2.52-1.99-3.99-.39-1.62-.53-3.32-.16-4.94.36-1.56,1.17-2.97,1.83-4.43.66-1.46,1.17-3.07.87-4.65,3.1.75,6.52,1.98,8.8,4.22Z"/>
    <path class="cls-4" d="M95.55,145.58c1.04-1.03,2.81-1.22,4.05-.44"/>
    <path class="cls-13" d="M78.24,60.13s0,.03,0,.05c0,.83.67,1.5,1.5,1.5s1.5-.67,1.5-1.5c0-.02,0-.03,0-.05h-3Z"/>
    <path class="cls-14" d="M75.7,58.82c.52-.03.97-.4,1.24-.84s.39-.96.51-1.47c.12-.52.24-1.04.36-1.56-.24,1.5.32,3.15,1.54,4.05,1.22.9,3.09.89,4.2-.15v-3.43c0-2.19-1.78-3.97-3.97-3.97h0c-2.24,0-4.04,1.85-3.97,4.09l.1,3.28Z"/>
    <path class="cls-3" d="M83.6,57.93c-.95.64-2.27.53-3.23-.09-.96-.62-1.57-1.67-1.87-2.78-.3-1.1-.31-2.26-.27-3.4.02.94.33,1.75.69,2.61.36.87.96,1.66,1.78,2.12.8.46,1.77.58,2.66.35"/>
    <path class="cls-14" d="M77.47,52.39c-1.35-.71-2.73-1.46-3.75-2.6-1.02-1.14-1.61-2.79-1.1-4.23.35-.99,1.17-1.77,2.11-2.23.94-.46,2-.64,3.05-.7,1.2-.07,2.46,0,3.53.55,1.08.55,1.93,1.65,1.9,2.86-.03.86-.48,1.64-.95,2.35-.73,1.1-1.54,2.15-2.43,3.12-.05.05-.12.1-.17.07s.05-.14.06-.07c-.89.07-1.56.33-2.24.9Z"/>
    <path class="cls-2" d="M69.54,52.29c2.56-1.63,5.99-1.81,8.7-.45-2.39-2.02-5.62-3.26-8.75-3.45"/>
    <path class="cls-2" d="M78.5,42.75c1.04.55,1.76,1.61,2.05,2.75.29,1.14.17,2.36-.17,3.48-.26.85-.64,1.66-1.13,2.4.37-1.54.12-3.37-.48-4.84-.6-1.47-1.67-2.74-3.01-3.59"/>
    <line class="cls-7" x1="79.05" y1="107.09" x2="78.84" y2="93.22"/>
    <path class="cls-7" d="M77.75,99.46c-.02-1.29.45-3.81,1.04-4.75"/>
    <path class="cls-7" d="M79.89,99.46c.02-1.29-.45-3.81-1.04-4.75"/>
    <path class="cls-1" d="M65.22,90.41c1.67.58,4.01.99,5.71.5,1.7-.49,3.26-1.37,4.73-2.36,5.9-4,10.41-10.03,12.58-16.83"/>
    <path class="cls-1" d="M91.61,73.17c-2.79,3.06-4.62,6.98-5.18,11.08-.35,2.58-.2,5.28.86,7.66s3.09,4.39,5.61,5.04"/>
    <path class="cls-1" d="M67.11,98.85c2.59-4.13,6.98-7.08,11.78-7.94,1.43-.26,2.95-.32,4.29.25,2.6,1.12,3.67,4.25,3.88,7.07.16,2.18-.01,4.38-.52,6.5"/>
    <path class="cls-4" d="M86.77,137.47c-6.83-4.62-16.07-7.52-24.95-7.92-8.88-.4-17.18.41-25.48,3.61-1.67-2.45-4.83-3.79-7.76-3.29"/>
    <path class="cls-4" d="M121.65,129.41c-2.69,0-5.31,1.65-6.48,4.08-11.51-5.19-24.65-5.14-36.25-.15"/>
    <line class="cls-4" x1="66.86" y1="120.73" x2="95.01" y2="120.73"/>
    <line class="cls-4" x1="77.27" y1="133.13" x2="77.27" y2="147.93"/>
    <polygon class="cls-14" points="104.53 117.49 105 118.33 105.84 118.79 105 119.25 104.53 120.1 104.07 119.25 103.23 118.79 104.07 118.33 104.53 117.49"/>
  </g>
  <polygon class="cls-14" points="58.4 119.24 58.97 120.29 60.03 120.87 58.97 121.45 58.4 122.5 57.82 121.45 56.76 120.87 57.82 120.29 58.4 119.24"/>
  <polygon class="cls-14" points="7.36 68.13 8.07 69.41 9.35 70.12 8.07 70.82 7.36 72.1 6.66 70.82 5.38 70.12 6.66 69.41 7.36 68.13"/>
  <polygon class="cls-14" points="3.9 78.18 4.27 78.85 4.93 79.21 4.27 79.58 3.9 80.24 3.54 79.58 2.87 79.21 3.54 78.85 3.9 78.18"/>
  <polygon class="cls-14" points="62.32 66.97 62.78 67.81 63.62 68.27 62.78 68.73 62.32 69.58 61.86 68.73 61.01 68.27 61.86 67.81 62.32 66.97"/>
  <polygon class="cls-14" points="93.46 61.38 94.26 62.85 95.73 63.66 94.26 64.46 93.46 65.93 92.66 64.46 91.19 63.66 92.66 62.85 93.46 61.38"/>
  <polygon class="cls-14" points="99.46 60.24 99.69 60.66 100.11 60.89 99.69 61.12 99.46 61.54 99.23 61.12 98.81 60.89 99.23 60.66 99.46 60.24"/>
  <polygon class="cls-14" points="87.5 6.98 88.67 9.11 90.79 10.27 88.67 11.44 87.5 13.57 86.34 11.44 84.21 10.27 86.34 9.11 87.5 6.98"/>
</svg>