<?xml version="1.0" encoding="UTF-8"?>
<svg id="PRINT" xmlns="http://www.w3.org/2000/svg" viewBox="0 0 152 166.16">
  <defs>
    <style>
      .cls-1 {
        stroke: #3f3227;
        stroke-width: .19px;
      }

      .cls-1, .cls-2, .cls-3, .cls-4, .cls-5, .cls-6, .cls-7, .cls-8 {
        fill: none;
      }

      .cls-1, .cls-5, .cls-6, .cls-8 {
        stroke-linecap: round;
        stroke-linejoin: round;
      }

      .cls-2, .cls-9, .cls-10, .cls-11, .cls-12, .cls-13, .cls-14 {
        stroke-width: 0px;
      }

      .cls-3 {
        stroke-width: .18px;
      }

      .cls-3, .cls-4, .cls-7 {
        stroke: #292727;
        stroke-miterlimit: 10;
      }

      .cls-4 {
        stroke-width: .18px;
      }

      .cls-5 {
        stroke: #de9efb;
        stroke-width: .27px;
      }

      .cls-6 {
        stroke-width: .42px;
      }

      .cls-6, .cls-8 {
        stroke: #8479f2;
      }

      .cls-7 {
        stroke-width: .14px;
      }

      .cls-9 {
        fill: #f9f5e6;
      }

      .cls-10 {
        fill: #2e2521;
      }

      .cls-11 {
        fill: #de9efb;
      }

      .cls-12 {
        fill: #ca7cef;
      }

      .cls-13 {
        fill: #8479f2;
      }

      .cls-14 {
        fill: #f0c66c;
      }

      .cls-8 {
        stroke-width: .38px;
      }
    </style>
  </defs>
  <rect class="cls-2" width="152" height="166.16"/>
  <g>
    <g>
      <path class="cls-9" d="M40.44,46.16c-.3-.36-.6-.72-.92-1.08.3.37.61.72.92,1.08Z"/>
      <path class="cls-9" d="M145.19,58.87c-4.95,5.99-11.37,10.57-16.97,15.95-2.62,2.51-5.09,5.25-7.23,8.2-2.38-8.1-8.73-15-16.69-17.89-9.16-3.32-19.3-1.47-29-2.4-12.78-1.21-26.36-6.92-34.86-16.58,10.38,12.63,11.95,30.4,11.86,46.85-.03,6.1-.19,12.39,2.04,18.06,1.23,3.13,3.09,5.84,5.38,8.19-.29.11-.58.23-.87.35-9.75,4.09-17.69,12.12-27.9,14.86-7.89,2.12-16.26.83-24.33-.47,5.58,1.34,9.45,4.79,12.19,9.82,2.43,4.47,3.25,9.75,2.52,14.8h126.83V54.81c-.93,1.43-1.94,2.79-2.99,4.06Z"/>
    </g>
    <ellipse class="cls-13" cx="39.53" cy="147.16" rx="35.7" ry="5.22"/>
    <ellipse class="cls-13" cx="64.95" cy="144.52" rx="35.7" ry="5.22"/>
    <path class="cls-14" d="M96.12,40.71c-2.16.36-4.2,1.11-6,2.4-7.18,5.16-2.74,14.74,3.37,18.52,7.13,4.41,15.55,6.72,23.93,6.57,5.36-.1,11.57-3.98,11.05-10.07-.56-6.61-7.13-11.46-12.75-13.75-5.96-2.44-13.09-4.75-19.61-3.67Z"/>
    <path class="cls-10" d="M132.74,52.52c.98-2.8,6.05-1.94,7.85-.64,1.52,1.1,3.46,3.33,1.71,5.14-2.51,2.6-10.81-.25-9.6-4.37.01-.04.03-.09.04-.13Z"/>
    <path class="cls-5" d="M147.77,144.84c-17.71-4.92-37.41-.43-52.69,9.79-.63.42-8.46-3.38-14.72-3.89-5.59-.45-19.29-.17-27.26,7.61"/>
    <path class="cls-4" d="M80.85,28.38c1.83,8.6,7.8,16.14,15.45,21.01s16.85,7.23,26.03,7.69c-.17,7.67,1.7,15.51,6.16,21.89,4.45,6.39,11.63,11.19,19.6,12.17"/>
    <path class="cls-10" d="M122.31,113.68c-1.66-.79-3.84-.79-4.98.55-.76.89-1.01,2.14-.54,3.23.62,1.41,2.19,2.26,3.73,2.3,1.37.03,2.98-.7,3.64-1.99.82-1.62-.36-3.39-1.85-4.09Z"/>
    <path class="cls-7" d="M126.42,111.95c-.6.8-1.83.88-2.76.18-.93-.7-1.2-1.91-.6-2.7.6-.8,1.83-.88,2.76-.18.93.7,1.2,1.91.6,2.7Z"/>
    <path class="cls-7" d="M133.67,48.87c-.6.8-1.83.88-2.76.18-.93-.7-1.2-1.91-.6-2.7.6-.8,1.83-.88,2.76-.18.93.7,1.2,1.91.6,2.7Z"/>
    <path class="cls-10" d="M36.02,81.69c-.96-.45-2.21-.46-2.87.32-.44.52-.58,1.23-.31,1.86.35.81,1.26,1.3,2.15,1.33.79.02,1.72-.4,2.1-1.14.48-.93-.21-1.95-1.06-2.36Z"/>
    <path class="cls-3" d="M38.03,80.52c-.34.46-1.06.51-1.59.11s-.69-1.1-.35-1.56c.34-.46,1.06-.51,1.59-.11.54.4.69,1.1.35,1.56Z"/>
    <polygon class="cls-14" points="106.35 86.55 107.36 88.4 109.2 89.4 107.36 90.41 106.35 92.25 105.35 90.41 103.5 89.4 105.35 88.4 106.35 86.55"/>
    <polygon class="cls-14" points="106.35 74.59 107.02 75.82 108.25 76.49 107.02 77.16 106.35 78.39 105.68 77.16 104.45 76.49 105.68 75.82 106.35 74.59"/>
    <polygon class="cls-14" points="113.26 82.55 113.56 83.1 114.11 83.4 113.56 83.7 113.26 84.25 112.96 83.7 112.41 83.4 112.96 83.1 113.26 82.55"/>
    <polygon class="cls-14" points="79.63 42.27 79.93 42.81 80.48 43.12 79.93 43.42 79.63 43.96 79.33 43.42 78.78 43.12 79.33 42.81 79.63 42.27"/>
    <polygon class="cls-14" points="63.72 107.34 64.59 108.94 66.2 109.82 64.59 110.69 63.72 112.29 62.84 110.69 61.24 109.82 62.84 108.94 63.72 107.34"/>
    <polygon class="cls-14" points="12.93 109.35 14.08 111.45 16.18 112.6 14.08 113.75 12.93 115.85 11.78 113.75 9.68 112.6 11.78 111.45 12.93 109.35"/>
    <polygon class="cls-14" points="56.81 103.14 57.26 103.96 58.09 104.41 57.26 104.86 56.81 105.69 56.36 104.86 55.54 104.41 56.36 103.96 56.81 103.14"/>
    <polygon class="cls-14" points="18.76 112.85 18.99 113.29 19.43 113.52 18.99 113.76 18.76 114.19 18.52 113.76 18.09 113.52 18.52 113.29 18.76 112.85"/>
    <polygon class="cls-14" points="16.67 119.55 17.91 121.81 20.17 123.05 17.91 124.29 16.67 126.56 15.43 124.29 13.16 123.05 15.43 121.81 16.67 119.55"/>
    <polygon class="cls-14" points="58.38 40.9 59.62 43.18 61.9 44.43 59.62 45.68 58.38 47.96 57.13 45.68 54.85 44.43 57.13 43.18 58.38 40.9"/>
    <polygon class="cls-14" points="48.71 42.27 49.24 43.24 50.21 43.77 49.24 44.3 48.71 45.27 48.18 44.3 47.21 43.77 48.18 43.24 48.71 42.27"/>
    <polygon class="cls-14" points="140.53 71.09 141.55 72.96 143.42 73.98 141.55 75 140.53 76.86 139.51 75 137.65 73.98 139.51 72.96 140.53 71.09"/>
    <polygon class="cls-14" points="32.48 55.18 33.02 56.15 33.99 56.68 33.02 57.21 32.48 58.18 31.95 57.21 30.98 56.68 31.95 56.15 32.48 55.18"/>
    <polygon class="cls-14" points="36.99 60.81 37.23 61.24 37.66 61.48 37.23 61.72 36.99 62.15 36.75 61.72 36.32 61.48 36.75 61.24 36.99 60.81"/>
    <polygon class="cls-14" points="140.28 113.47 140.9 114.6 142.03 115.22 140.9 115.84 140.28 116.97 139.66 115.84 138.53 115.22 139.66 114.6 140.28 113.47"/>
    <polygon class="cls-14" points="137.88 104.47 138.18 105.01 138.73 105.31 138.18 105.61 137.88 106.16 137.58 105.61 137.03 105.31 137.58 105.01 137.88 104.47"/>
    <g>
      <g>
        <path class="cls-12" d="M84.94,82.81c-1.23-11.49-3.53-22.81-6.86-33.69-.1-.34-.58-.36-.71-.03,0,0,0,0,0,.01-1.39,3.48-3.87,6.79-5.49,10.13-.64,4.14-.37,8.35-1.01,12.49-.78,5.07-1.57,10.23-1.02,15.34.55,5.11,2.65,10.25,6.41,12.81,3.05,2.07,6.37-.99,7.88-4.75,1.51-3.76,1.24-8.16.8-12.3Z"/>
        <path class="cls-11" d="M67.26,86.9c.05,1.82-.17,3.25-.81,4.9,2.55,1.19,4.04,3.45,5.01,6.01.53-1.05,1.28-2.05,1.87-3.14,1.05-1.96,1.98-4.5,3.49-6.12-3.11,1.37-7.14.74-9.56-1.64Z"/>
        <rect class="cls-11" x="62.69" y="86.15" width="8.47" height="6.17" rx="3.08" ry="3.08" transform="translate(133.85 178.48) rotate(180)"/>
        <path class="cls-11" d="M88.49,83.76c-1.23-11.49-3.53-22.81-6.86-33.69-.1-.34-.58-.36-.71-.03,0,0,0,0,0,.01-1.39,3.48-3.87,6.79-5.49,10.13-.64,4.14-.37,8.35-1.01,12.49-.78,5.07-1.57,10.23-1.02,15.34.55,5.11,2.65,10.25,6.41,12.81,3.05,2.07,6.37-.99,7.88-4.75s1.24-8.16.8-12.3Z"/>
        <path class="cls-11" d="M72.39,90.72c-2.76,3.99-2.02,9.65,1.7,12.96,2.8,2.49,6.77,3.54,10.25,5.2,3.48,1.66,6.85,4.57,6.59,8.1,5.57.78,11.02,1.11,16.54,2.15.98-7.91-1.62-17.11-6.71-23.63s-12.89-11.3-21.51-13.19c-2.7,3.72-4.26,4.63-6.87,8.41Z"/>
        <path class="cls-10" d="M100.78,95.49c-3.15-4.03-7.33-7.39-12.1-9.82,0,.08.02.16.03.24.75,2.63,1.37,5.41,1.23,8.15-.14,2.65-1.14,5.29-3.76,6.33-2.63,1.04-5.67.28-7.74-1.56-2.04-1.82-3.16-4.57-3.84-7.15-.14-.55-.27-1.11-.38-1.67-.13-.43-.24-.87-.33-1.31-.47.58-.96,1.24-1.5,2.01-1.92,2.77-2.14,6.34-.86,9.37.22.03.43.07.65.1,2.76-.58,6.27-.03,7.5,2.7.14.31.19.65.15.97.13.84-.44,1.74-1.42,1.72-.63-.01-1.24-.08-1.85-.17,1.57.88,3.29,1.57,5.01,2.27,3.1-.73,6.41-.82,9.53-.36,3.5.51,6.69,2.16,10.19,2.68,1.99.3,3.96.28,5.87,0-.96-5.23-3.17-10.4-6.37-14.5Z"/>
        <path class="cls-10" d="M93,85.9c-1.23-1.02-2.93-1.45-4.5-1.18.06.38.12.76.18,1.14.11.5.22,1,.34,1.5,1.91,1.65,3.91,3.18,6.05,4.53.41-2.18-.36-4.58-2.07-5.99Z"/>
        <path class="cls-12" d="M77.78,50.94c.02-1.92-1.47-3.76-3.35-4.13-2.07-.41-4.1.79-5.71,2.15-2.25,1.9-4.12,4.21-5.89,6.58-4.52,6.04-10.13,16.35-13.39,23.16.72,1.21,1.76.4,3.21,2,4.8-5.17,14.76-14.01,21.71-22.3,2.03-2.42,3.39-4.31,3.42-7.46Z"/>
        <path class="cls-11" d="M81.91,51.8c.16-1.92-1.2-3.85-3.05-4.35-2.03-.55-4.15.5-5.85,1.74-2.38,1.74-4.41,3.91-6.34,6.15-4.93,5.71-11.25,15.6-14.99,22.16.63,1.26,1.73.53,3.06,2.22,5.15-4.82,15.71-12.94,23.23-20.72,2.19-2.27,3.68-4.06,3.94-7.2Z"/>
        <path class="cls-10" d="M93.73,114.57c-3.79-.57-7.09-1.56-10.84-.75-3.75.81-7.78,1.47-12.83,9.89l15.22,9.32c3.08,0,6.51-.51,9.51-1.23,3.49-.84,7.1-2.04,9.47-4.73,2.51-2.84,3.2-6.81,3.59-10.58l-14.11-1.93Z"/>
        <path class="cls-10" d="M116.67,130.44c-.72.3-1.52.33-2.3.41-4.95.51-9.38,3.13-13.76,5.48-4.38,2.35-8.96,4.88-13.91,4.41.66,1.74,1.18,3.48,1.64,5.26h48.8c.93-.51,1.77-1.18,2.49-2.09,2.15-2.71,2.6-6.59,1.18-9.69-2.48-5.39-7.94-8.96-13.68-10.48-5.74-1.52-11.55-1.76-17.47-1.33-1.44-2.14-3.65-3.75-6.13-4.47-5.79,5.12-11.11,9.73-17.38,14.24,9.25,2.09,21.08-.91,30.53-1.75Z"/>
        <rect class="cls-10" x="82.89" y="124.55" width="41.65" height="10.94"/>
        <path class="cls-10" d="M93.07,132.65c-3.23,4.48-8.55,6.91-13.75,8.78-16.79,6.04-35.31,8.17-52.61,3.79,2.76-3.63,4.38-7.68,5.89-11.98.04-.12.08-.27-.01-.36s-.29.07-.18.14c8.8-1.4,16.74-4.95,25.14-7.91,8.4-2.96,17.53-5.08,26.18-2.95,2.48.61,4.93,1.6,6.8,3.33,1.88,1.73,4.02,5.09,2.53,7.16Z"/>
        <path class="cls-10" d="M27.99,145.49c-3.43-.62-5.5-4.19-6.3-7.59-1.56-6.61-.61-14.36,1.46-20.83,3.5-10.93,11.2-22.26,17.78-31.66,2.31,2.01,2.2,5.99,4.75,7.68-2.91,4.23-4.62,10.97-4.66,16.1-.03,5.14.98,10.22,2.09,15.23.63,2.86,1.3,5.77,1.14,8.7-.23,3.99-2.15,7.93-5.38,10.29-3.23,2.36-6.94,2.79-10.88,2.08Z"/>
        <path class="cls-11" d="M30.75,103.53c2.13,1.03,4.32,1.79,6.56,2.52,1.26.41,2.52.8,3.79,1.18.39-4.79,2.74-10.82,5.29-14.53-3.06-1.71-3.17-5.28-5.48-7.29-3.75,5.36-7.86,11.35-11.36,17.53.39.2.79.39,1.19.58Z"/>
        <path class="cls-11" d="M52.73,84.33c-1.08-2.21-2.54-4.43-4.84-5.32-.1-.04-.31-4.34-.4-4.8-.28-1.55-.93-3.17-2.21-4.2-.32-.26-3.95-2.19-3.99-2.09-.45,1.02-.86,2.05-1.11,3.14-1.25,5.29,1.05,11-.51,16.21,1.82,2,3.8,4.51,5.84,6.28.78-.92,2.05-1.63,3.01-2.37,1.54.94,3.72-.02,4.52-1.63.8-1.61.48-3.59-.31-5.2Z"/>
        <path class="cls-10" d="M47.89,79.01c.02-1.1-.04-2.2-.17-3.29-1.46,1.38-2.58,3.06-3.29,4.9-1.14,2.95-.65,10.52,4.17,9.3,1.26-.32,5.1-2.8,4.56-4.5-.12-.38-.27-.74-.44-1.09-1.08-2.21-2.54-4.43-4.84-5.32Z"/>
        <g>
          <path class="cls-11" d="M52,82.44c0,.11.04.95,0,1.06-.03.08-.08.14-.13.2-.52.65-.96,1.37-1.29,2.13-.13.3-.25.65-.2.96.02.12.16.16.25.08l1.99-2.01c.9-.91,1.81-2.06,2.08-3.31.24-1.09-.15-3.15-1.21-2.38-.92.67-1.49,1.96-1.5,3.26Z"/>
          <path class="cls-11" d="M50.72,83.96c-.96,1.45-2.07,2.8-3.31,4.03-.19.19-.54.05-.52-.22,0,0,0,0,0,0,.02-.2.13-.37.24-.53.96-1.43,1.92-2.85,2.87-4.28.12-.19.4-.18.51.02.14.24.2.34.24.79,0,.07-.01.14-.05.2Z"/>
          <path class="cls-11" d="M49.02,82.17c-1.14,1.32-2.41,2.52-3.78,3.58-.22.17-.54-.02-.49-.29,0,0,0,0,0,0,.04-.19.18-.35.31-.5,1.13-1.29,2.26-2.59,3.39-3.88.15-.17.42-.12.51.08.11.26.16.36.14.82,0,.07-.03.14-.07.19Z"/>
          <path class="cls-11" d="M49.66,83.4c-1.09,1.36-2.32,2.6-3.65,3.71-.21.17-.54,0-.5-.27,0,0,0,0,0,0,.03-.19.16-.36.29-.51,1.08-1.33,2.16-2.67,3.25-4,.14-.17.42-.14.51.06.12.25.17.36.17.81,0,.07-.02.14-.07.2Z"/>
          <path class="cls-11" d="M52.05,82.78c-.51.47-1.06,1-1.54,1.51l-2.61-2.7c-.29.29-.65.49-.98.73-.47.35-.88.94-1.3,1.35-.1.1-.2.2-.33.25-.13.05-.29.05-.39-.05.11-.33.33-.61.55-.89,1.11-1.39,2.26-2.75,3.41-4.1.85-1,1.87-1.65,3.17-1.83l3.14-4.77.86,6.16-1.28,1.28c.13.85.01,1.66-.41,2.42-.42.75-1.14,1.35-1.97,1.57-.29-.24-.46-.57-.32-.92Z"/>
        </g>
        <path class="cls-1" d="M41.6,93.83c1.59-1.1,2.24-3.38,1.47-5.15"/>
        <path class="cls-11" d="M47.06,74.83c.32-1.78-.71-3.63-1.85-5.03-1.15-1.4-2.93-2.26-4.74-2.3-.02-.43-.44-1.01-.77-1.3-.37-.32-.85-.46-1.33-.53-.67-.11-1.37-.12-2.01.11-.65.23-1.23.74-1.42,1.4-.03.1,0,.21.09.27.59.37,1.23.41,1.8.81.36.25.66.62.81,1.02.15.4.46.72.86.87.57.22,1.04.76,1.19,1.36.22.86.03,1.76-.05,2.63-.2,2.14.28,4.43,1.74,6,.39-.76,1.17-1.18,1.76-1.81.56-.47,1.11-.95,1.66-1.42.36-.27.69-.61,1.07-.85.35-.23.82-1.01,1.17-1.23Z"/>
        <path class="cls-11" d="M103,133.38c-4.76.79-9.29,2.93-12.93,6.1-.07.01-.14.02-.21.03-.07-.03-.13-.07-.2-.1-1.63-.9-2.72-2.54-4.29-3.54-1.73-1.09-3.99-1.29-5.88-.51-1.89.78-3.57,2.97-4.02,4.96-1.74-1.32-3.85-2.35-6.02-2.12-2.17.22-4.43,2.03-4.31,4.21-1.24-.04-2.54.06-3.63.65-1.09.59-1.34,1.72-1.19,2.95h47.4c-.22-4.73-1.11-9.63-4.71-12.63Z"/>
        <path class="cls-1" d="M81.59,143.07c.35-1.13,1.41-1.96,2.57-2.17,1.16-.21,2.38.16,3.33.87.49.37.93.84,1.09,1.43"/>
        <path class="cls-1" d="M66.74,89.75c-.49.13-.57.82-.35,1.28.49.98,2,1.23,2.77.46"/>
        <path class="cls-10" d="M58.99,92.5c-.33.71-.32,1.58.09,2.24.51.83,1.52,1.21,2.49,1.29.58.05,1.19,0,1.73-.22s1.02-.65,1.22-1.2c.18-.5.13-1.05.02-1.58-.23-1.11-.79-2.39-2.07-2.38-1.38.01-2.85.51-3.47,1.85Z"/>
        <path class="cls-1" d="M66.24,87.48c.8-.62,2.08-.45,2.7.34"/>
        <path class="cls-1" d="M67.02,86.19c.22.27.21.49.11.86"/>
        <path class="cls-1" d="M73.19,85.28c-.06,2.62.93,5.24,2.69,7.18"/>
        <path class="cls-6" d="M101.49,133.34c6.2-4.15,14.01-6.12,21.29-4.53"/>
        <path class="cls-6" d="M86.04,122.02c2.9,2.73,4.15,7.08,3.15,10.93"/>
        <line class="cls-1" x1="88.47" y1="84.58" x2="88.47" y2="94.52"/>
        <path class="cls-11" d="M69.48,90.97c0,1.01-.82,1.83-1.83,1.83s-1.83-.82-1.83-1.83.82-1.83,1.83-1.83,1.83.82,1.83,1.83Z"/>
        <path class="cls-10" d="M65.23,86.27c.37.39.57.93.56,1.47-.02.54-.25,1.07-.64,1.44.89-.15,1.92.09,2.59.7.67.61,1.04,1.54.97,2.44h-3.5c-1.81,0-3.2-1.67-2.8-3.44,0-.01,0-.03,0-.04.31-1.27,1.53-2.36,2.82-2.57Z"/>
        <path class="cls-11" d="M69.77,91.65c0,.96-.78,1.75-1.75,1.75s-1.75-.78-1.75-1.75.78-1.75,1.75-1.75,1.75.78,1.75,1.75Z"/>
        <path class="cls-1" d="M68.65,93.3c.93-.32,1.54-1.38,1.34-2.35"/>
      </g>
      <path class="cls-6" d="M22.25,137.01c8.98-7.6,13.54-20.1,11.55-31.7"/>
      <path class="cls-6" d="M36.44,147.27c2.15-5.16,6.49-9.08,11.37-11.63,5.55-2.9,12.01-4.42,18.28-3.89,3.44.29,8.74,1.78,11.14,4.39"/>
      <path class="cls-6" d="M137.68,129.9c-1.86.13-3.53,1.26-4.72,2.69-1.19,1.43-1.96,3.16-2.7,4.87-2.64-2-6.52-2.1-9.38-.42-2.86,1.68-4.63,4.98-4.67,8.3"/>
      <path class="cls-8" d="M92.87,114.52c-.61,7.43,3.96,13,11.58,13.13,4.01.07,10.05-1.02,12.09-4.97"/>
      <path class="cls-6" d="M79.96,106.16c4.05-1.72,8.67-1.31,12.99-.48,4.32.83,8.64,2.05,13.03,1.85.37-.02.8-.53.44-.6"/>
      <path class="cls-6" d="M96.58,91.04c-.39.46-.77.93-1.09,1.45-1.81,2.9-1.24,6.96,1.08,9.46,2.32,2.5,6.12,3.4,9.41,2.5"/>
    </g>
  </g>
</svg>