<?xml version="1.0" encoding="UTF-8"?>
<svg id="PRINT" xmlns="http://www.w3.org/2000/svg" viewBox="0 0 152 166.16">
  <defs>
    <style>
      .cls-1 {
        stroke: #de9efb;
        stroke-width: .37px;
      }

      .cls-1, .cls-2, .cls-3, .cls-4, .cls-5, .cls-6, .cls-7, .cls-8, .cls-9 {
        fill: none;
      }

      .cls-1, .cls-8, .cls-9 {
        stroke-linecap: round;
        stroke-linejoin: round;
      }

      .cls-2 {
        stroke: #f9f5e6;
      }

      .cls-2, .cls-3 {
        stroke-width: .19px;
      }

      .cls-2, .cls-3, .cls-4, .cls-5, .cls-6, .cls-7 {
        stroke-miterlimit: 10;
      }

      .cls-3, .cls-4, .cls-5, .cls-6, .cls-7 {
        stroke: #292727;
      }

      .cls-4 {
        stroke-width: .13px;
      }

      .cls-5 {
        stroke-width: .23px;
      }

      .cls-6 {
        stroke-width: .18px;
      }

      .cls-7 {
        stroke-width: .18px;
      }

      .cls-8 {
        stroke: #000;
        stroke-width: .17px;
      }

      .cls-9 {
        stroke: #a7e8fd;
        stroke-width: .39px;
      }

      .cls-10 {
        fill: #f9f5e6;
      }

      .cls-10, .cls-11, .cls-12, .cls-13, .cls-14 {
        stroke-width: 0px;
      }

      .cls-11 {
        fill: #2e2521;
      }

      .cls-12 {
        fill: #a7e8fd;
      }

      .cls-13 {
        fill: #de9efb;
      }

      .cls-14 {
        fill: #f0c66c;
      }
    </style>
  </defs>
  <path class="cls-10" d="M149.55,48.41v109.11l-133.05.29c-2.6-6.57,1.87-14.03,7.3-18.16,5.43-4.13,12.02-6.54,16.75-11.57,5.3-5.62,7.3-13.98,7.13-21.96-.12-5.54.32-11.4-4.17-17.6,2.87,3.95,13.03,7.3,22.41,5.59,9.9-1.81,17.65-10.04,23.74-18.59,6.09-8.56,11.41-18.06,19.5-24.42,11.49-9.04,27.94-10.04,40.39-2.69Z"/>
  <path class="cls-11" d="M79.31,147.35c-2.93,0-5.64.13-7.88.36-2.2-1.28-10.18-2.23-19.68-2.23-11.2,0-20.28,1.32-20.28,2.95s9.08,2.95,20.28,2.95c6.19,0,11.73-.4,15.45-1.04,2.36.62,6.9,1.04,12.11,1.04,7.64,0,13.84-.9,13.84-2.01s-6.2-2.01-13.84-2.01Z"/>
  <g>
    <path class="cls-12" d="M29.44,108.09c-1.76-3.88-5.21-7.3-9.53-9.45-2.92-1.45-6.31-2.34-9.56-2.04-3.25.3-6.28,1.93-7.38,4.43-.68,1.55-.61,3.3-.27,4.98,1.58,7.72,9.46,15.04,18.79,16.9,4.22.84,8.08.63,9.08-2.96.96-3.47.43-8.45-1.12-11.87Z"/>
    <path class="cls-6" d="M84.43,148c-2.56-6.2-7.87-11.21-14.22-13.4-7.79-2.69-15.58-4.44-23.69-5.87-14.87-2.6-23.26-5.59-36.17-32.13"/>
    <path class="cls-6" d="M27.34,121.34c0-.45-9.36-23.56-9.36-23.56"/>
    <path class="cls-6" d="M2.7,106.02l24.64,15.31c0-.91-1.06-17.82-1.06-17.82"/>
    <g>
      <path class="cls-12" d="M12.82,75.03c-1.67-2.24-3.1-4.61-4.26-6.91-1.61-3.19-3.12-6.8-3.06-10.44.08-4.48,3.07-7.38,7.61-6.27,3.07.75,5.96,2.31,8.66,3.91,7.46,4.39,13.59,11.02,17.39,18.79,2.22,4.54.53,10.59-4.85,11.67-8.86,1.78-16.32-3.85-21.49-10.76Z"/>
      <path class="cls-6" d="M81.79,149.91c-3.67-10.79-10.4-20.72-19.83-27.12-4.09-2.78-8.63-4.87-12.73-7.64-16.19-10.96-27.17-36.64-28.63-56.14"/>
      <path class="cls-6" d="M26.84,59.01c-.1.3.3,26.28.3,25.98s5.84-20.14,5.84-20.14"/>
      <path class="cls-6" d="M38.02,72.1c-.3,0-10.97,13.39-10.97,13.39"/>
    </g>
  </g>
  <path class="cls-11" d="M82.45,52.08c-.94-.45-2.18-.45-2.83.31-.43.51-.58,1.22-.31,1.84.35.8,1.24,1.29,2.12,1.31.78.02,1.7-.4,2.07-1.13.47-.92-.2-1.93-1.05-2.33Z"/>
  <path class="cls-7" d="M86.29,55.13c-.39.27-.5.84-.29,1.27.21.42.68.68,1.15.7.13,0,.26,0,.38-.05.3-.11.51-.4.58-.71.24-1.06-.93-1.82-1.82-1.2Z"/>
  <path class="cls-7" d="M32.91,132.95c-.39.27-.5.84-.29,1.27s.68.68,1.15.7c.13,0,.26,0,.38-.05.3-.11.51-.4.58-.71.24-1.06-.93-1.82-1.82-1.2Z"/>
  <path class="cls-4" d="M19.93,34.84c-.76,1.72-1.13,3.62-1.08,5.5.05,1.64.42,3.3,1.3,4.69,1.46,2.3,4.32,3.61,7,3.2,4.93-.76,7.63-6.29,12.04-8.64,3.38-1.8,7.46-1.55,11.22-.82,2.67.52,5.36,1.27,8.06.94,2.7-.33,5.46-2.09,5.96-4.79"/>
  <path class="cls-1" d="M149.29,105.69c-8.53,4.84-14.14,14.44-14.18,24.24-.04,9.81,5.49,19.45,13.97,24.36"/>
  <g>
    <path class="cls-11" d="M93.37,83.68c-24.26,11.53-45.67,27.38-63.92,47.08,5.96,1.71,11.21,2.33,17.37,1.63,3.14-2.59,5.64-5.03,8.79-7.62,2.1-1.73,4.2-3.46,5.99-5.5,1.77-2.01,3.22-4.3,4.28-6.75,7.22,1.84,15.02,1.04,21.56-2.51,6.55-3.55,11.67-9.64,14.07-16.69.78-2.3,1.27-4.86.41-7.13-.86-2.27-6.35-3.56-8.54-2.52Z"/>
    <path class="cls-11" d="M94.17,87.27c-4.87-6.94-18.89-19.37-24.76-25.48-2.8-2.92-5.79-5.79-9.46-7.51-3.67-1.72-8.17-2.12-11.69-.12-5.28,3-6.55,9.99-6.62,16.06-.11,9.52,1.36,18.82,4.32,27.87,1.95-.26,3.91-.35,5.86-.6,2.73-.35,2.35-.09,3.38-2.36,4.03-8.84,2.66-16.65.76-26.16,1.82,1.88,4.69,6.72,6.44,8.66,3.49,3.86,6.24,7.37,8.79,9.92,3.68,3.68,5.6,6.26,10.78,6.81l12.19-7.09Z"/>
    <path class="cls-13" d="M43.87,90.45c2.1,8.87,2.16,19.19-4.4,25.78-.59.6-1.13,1.24-1.64,1.91-1.79,2.31-1.94,4.71-1.5,5.43,5.86-3.41,13.04-9.49,18.87-12.96,1.98-1.18,4.17-2.68,4.42-4.98.21-1.9-1.28-3.83-3.17-4.11.07-4.05-.29-7.88.7-11.8-4.58.25-8.7.49-13.29.74Z"/>
    <path class="cls-13" d="M29.45,130.77c-3.26,4.23-6.69,8.34-10.26,12.31-1.47,1.64-3.09,3.33-5.23,3.88-1.89.49-3.91.01-5.83.38-1.77.33-3.38,1.41-4.37,2.91h30.96c2.12-1.78,2.77-4.58,1.82-7.19,3.39-3.55,6.56-6.83,9.95-10.37-5.91.03-11.27-.64-17.04-1.92Z"/>
    <path class="cls-13" d="M94.4,83.87c-.46,4.06,2.41,7.99,5.65,10.48h15.39c-.17-6.2-1.48-12.45-4.38-17.93-1-1.89-2.05-3.07-3.37-4.75-1.06-1.35-2.46-2.44-1.7-1.8,0,0-10.88,7.76-11.59,13.99Z"/>
    <path class="cls-12" d="M94.4,83.87c-.46,4.06,2.41,7.99,5.65,10.48h15.39c-.17-6.2-1.48-12.45-4.38-17.93-1-1.89-2.05-3.07-3.37-4.75-1.06-1.35-2.46-2.44-1.7-1.8,0,0-10.88,7.76-11.59,13.99Z"/>
    <path class="cls-13" d="M105.42,92.37c.25,10.5,1.14,20.99,2.67,31.38,1.52,10.38,11,18.06,16.37,27.07,2.11.05,3.71-.48,5.81-.43-2.08-6.49-4.15-12.98-6.23-19.47-.93-2.91-1.86-5.83-2.28-8.85-.48-3.42-.28-6.9-.38-10.35-.15-5.17-.97-10.33-2.44-15.3-1.02-3.47-2.47-7-5.29-9.27-1.04-.84-2.33-1.49-3.67-1.39-1.59.12-2.94,1.32-3.68,2.74-.74,1.42-.92,2.27-.88,3.86Z"/>
    <path class="cls-12" d="M105.58,97.1c5.01,1.47,10,3.19,14.79,5.31-.38-2.02-.85-4.02-1.43-5.98-1.02-3.47-2.47-7-5.29-9.27-1.04-.84-2.33-1.49-3.67-1.39-1.59.12-2.94,1.32-3.68,2.74-.74,1.42-.92,2.27-.88,3.86.04,1.58.09,3.15.16,4.73Z"/>
    <path class="cls-13" d="M100.46,78.75c-2.69-11.04-3.97-22.43-3.82-33.79.03-1.97.22-4.2,1.75-5.44,1.61-1.31,3.97-.93,5.95-.3,7.89,2.51,21.27,10.01,26.52,12.75-.74,1.59-1.23,3.76-2.1,5.27-1.04-.33-14.5-3.35-20.13-4.64.97,4.4,1.22,8.59,1.58,13.08.17,2.19.27,4.43-.24,6.56-.51,2.14-1.7,4.2-3.6,5.32-1.48.87-5.49,2.87-5.89,1.2Z"/>
    <path class="cls-12" d="M110,63.24c-3.37,3.66-6.96,7.11-10.67,10.43.34,1.7.72,3.39,1.13,5.08.41,1.67,4.41-.32,5.89-1.2,1.89-1.12,3.09-3.18,3.6-5.32.51-2.14.41-4.37.24-6.56-.06-.82-.13-1.63-.19-2.43Z"/>
    <path class="cls-13" d="M114.24,88.22c-.53-3.28,1.37-6.81,4.4-8.17-.72-1.74-.96-3.19-.91-5.07-2.36,2.33-6.29,2.94-9.32,1.6,1.47,1.59,2.38,4.07,3.4,5.98,1.02,1.91,2.59,3.51,2.43,5.67Z"/>
    <path class="cls-13" d="M122.19,77.26c0,.83-.34,1.59-.88,2.13-.55.54-1.3.88-2.13.88h-2.24c-1.66,0-3.01-1.35-3.01-3.01,0-.83.34-1.59.88-2.13.55-.54,1.3-.88,2.13-.88h2.24c.24,0,.48.03.7.08,1.32.32,2.31,1.51,2.31,2.93Z"/>
    <path class="cls-13" d="M125.27,153.28c.6.46,1.42.5,2.18.53,1.88.06,3.77.12,5.65.17-1.01-.58-2.13-.97-3.29-1.13,3.47-1.21,7.19.88,10.87.91-1.91-1.17-3.96-2.1-6.09-2.77-1.22-.38-2.47-.69-3.6-1.29-1.12-.61-2.12-1.58-2.41-2.83,0-.03-3.12.52-3.41.56-1.06.18-1.35.09-1.3,1.13.06,1.28.31,3.9,1.39,4.72Z"/>
    <g>
      <path class="cls-13" d="M135.54,53.88c.14-.07,1.17-.66,1.32-.68.11-.02.22,0,.33.03,1.14.25,2.32.34,3.49.28.46-.03.97-.1,1.33-.36.14-.1.1-.31-.05-.36l-3.78-1.23c-1.7-.56-3.73-.98-5.46-.53-1.52.39-3.86,2.18-2.22,3.02,1.41.73,3.4.63,5.04-.17Z"/>
      <path class="cls-13" d="M138.26,54.53c2.43.3,4.82.84,7.14,1.61.36.12.4.64.04.79,0,0,0,0,0,0-.26.1-.55.07-.82.03-2.39-.3-4.79-.61-7.18-.91-.31-.04-.47-.39-.3-.66.22-.33.3-.46.84-.81.08-.05.19-.08.28-.06Z"/>
      <path class="cls-13" d="M137.08,57.79c2.37.6,4.68,1.44,6.88,2.5.35.17.32.69-.06.79,0,0,0,0,0,0-.27.07-.55,0-.82-.07-2.34-.6-4.67-1.2-7.01-1.81-.3-.08-.42-.45-.22-.69.26-.3.36-.42.94-.69.09-.04.19-.05.29-.03Z"/>
      <path class="cls-13" d="M138.22,56.21c2.39.51,4.73,1.27,6.97,2.25.35.15.34.68-.03.79,0,0,0,0,0,0-.27.08-.55.02-.82-.04-2.36-.52-4.71-1.04-7.07-1.55-.31-.07-.44-.43-.24-.68.25-.31.34-.43.91-.73.09-.05.19-.06.29-.04Z"/>
      <path class="cls-13" d="M135.94,53.6c.91.35,1.93.69,2.86.98l-1.75,4.97c.55.18,1.02.51,1.54.77.73.37,1.73.51,2.51.78.18.06.37.13.52.26s.24.34.18.52c-.49.07-.98-.03-1.46-.13-2.44-.52-4.87-1.11-7.3-1.7-1.79-.44-3.25-1.31-4.3-2.82l-2.52-.83,1.74-5.06,2.42.8c.99-.7,2.08-1.07,3.29-1.01,1.21.05,2.41.58,3.21,1.49-.13.51-.43.94-.95.98Z"/>
      <path class="cls-8" d="M130.65,54.38c2,.46,3.8,1.71,4.93,3.42"/>
    </g>
    <path class="cls-8" d="M117.69,74.35c-.07.53.16,1.27.48,1.7"/>
    <path class="cls-8" d="M119.77,76.2c-.46-.32-1.09-.38-1.6-.15-.51.23-.88.75-.94,1.31"/>
    <path class="cls-11" d="M17.46,134.54c-1.04-.5-2.42-.5-3.14.35-.48.56-.64,1.35-.34,2.03.39.89,1.38,1.42,2.35,1.45.87.02,1.88-.44,2.29-1.25.52-1.02-.22-2.13-1.16-2.58Z"/>
    <path class="cls-11" d="M122.19,77.26c0,.83-.34,1.59-.88,2.13-.55.54-1.3.88-2.13.88h-1.52c-.28-1.1.2-2.37,1.16-2.98.68-.43,1.51-.55,2.31-.6.11,0,.21-.16.3-.13-.49-.24-.91-.61-1.21-1.07-.21-.31-.36-.68-.35-1.06,0-.03,0-.07.02-.1,1.32.32,2.31,1.51,2.31,2.93Z"/>
    <path class="cls-13" d="M119.42,79.95c0,.71-.58,1.29-1.29,1.29s-1.29-.58-1.29-1.29.58-1.29,1.29-1.29,1.29.58,1.29,1.29Z"/>
    <path class="cls-8" d="M117.45,79.36c.48.06.9.44,1.01.91,0,.03,0,.08-.03.07"/>
    <path class="cls-11" d="M145.12,93.05c-.1-2.71-1.15-5.88-3.86-7.05-1.71-.74-3.68-.45-5.47-.25-.65.07-1.33.13-2,.12-1.96-.02-3.5-1.65-3.49-3.61,0-.18,0-.37-.03-.56-.26-2.36-2.2-4.25-4.57-4.43-3.07-.24-5.61,2.3-5.38,5.37.18,2.41,2.12,4.37,4.52,4.58.36.03.72.03,1.07-.02,1.23-.15,2.41.61,2.73,1.81,0,0,0,.02,0,.03.48,1.88-.49,3.78-.89,5.68-.57,2.69.13,5.7,2.1,7.61,2.02,1.96,5.16,2.55,7.86,1.74,3.54-1.06,6.17-4.17,7.08-7.73.25-.99.37-2.14.33-3.31Z"/>
    <path class="cls-2" d="M122.79,77.91c.46,1.44,1.69,2.54,3.08,3.12,1.39.59,2.93.71,4.44.67"/>
    <path class="cls-2" d="M128.62,90.36c2.82.08,5.46,2.19,6.17,4.93.27,1.06.25,2.27-.38,3.17-.19.28-.47.53-.81.57-.74.08-1.14-.85-1.2-1.59-.23-2.98,1.35-6.02,3.91-7.55,2.57-1.53,6-1.47,8.51.15"/>
    <path class="cls-9" d="M43.33,83.18c2.12-.74,3.81-2.47,4.83-4.47s1.43-4.27,1.55-6.51c.22-3.86-.37-7.76-1.72-11.38,4.69,3.73,10.93,5.43,16.86,4.61,2.05-.29,4.28-1.03,5.24-2.87"/>
    <path class="cls-9" d="M74.64,67.1c-.97,4.33-1.3,8.95.1,13.16,1.4,4.21,4.8,7.95,9.16,8.82,1.15.23,2.5.19,3.27-.68.77-.87.2-2.68-.96-2.52-.57.08-.98.57-1.29,1.05-2.13,3.33-1.95,7.79-.27,11.37,1.68,3.58,4.67,6.4,7.91,8.67"/>
    <path class="cls-9" d="M52.71,125.71c1.56-7.1,4.54-14.47,10.7-18.32,3.7-2.31,8.26-3.09,12.58-2.5,4.32.59,8.41,2.5,11.88,5.14"/>
    <path class="cls-12" d="M94.4,83.87c-.46,4.06,2.41,7.99,5.65,10.48h15.39c-.17-6.2-1.48-12.45-4.38-17.93-1-1.89-2.05-3.07-3.37-4.75-1.06-1.35-2.46-2.44-1.7-1.8,0,0-10.88,7.76-11.59,13.99Z"/>
    <path class="cls-3" d="M51.85,96.65c1.14,2.3,1.23,5.09.23,7.46"/>
    <path class="cls-3" d="M34.93,137.36c.52,2.85-1.49,5.93-4.31,6.6"/>
    <path class="cls-3" d="M40.16,121.42c-.68-2.26.95-4.94,3.28-5.37.67-.83,1.02-1.91.98-2.98"/>
    <path class="cls-3" d="M8.34,150.29c.38-.91,1.37-1.45,2.35-1.56.98-.11,1.96.14,2.91.39"/>
    <path class="cls-8" d="M110.45,75.66c-2.45,2.1-2.76,6.14-.9,8.78.86,1.23,2.09,2.15,3.11,3.24,1.03,1.09,1.9,2.5,1.77,3.99-.13,1.62-1.36,2.9-2.11,4.33-.53,1.02-.83,2.16-.87,3.31"/>
    <path class="cls-8" d="M104.65,68.93c1.21,3.38.71,7.32-1.3,10.29-2.01,2.97-5.48,4.9-9.07,5.04"/>
    <path class="cls-11" d="M106.73,135.84c-2.04.25-3.29,2.97-2.16,4.68,1.13,1.71,4.12,1.63,5.16-.14,1.03-1.78-.37-4.42-2.42-4.56"/>
    <path class="cls-5" d="M111.11,144.16c.94.62,2.09.6,2.11-1.26.01-1.05-1.01-1.92-2.05-1.72-2.11.41-1.25,2.2-.06,2.98Z"/>
    <polygon class="cls-14" points="95.26 120.33 96.25 122.14 98.06 123.13 96.25 124.12 95.26 125.94 94.27 124.12 92.46 123.13 94.27 122.14 95.26 120.33"/>
    <polygon class="cls-14" points="87.06 124.89 87.71 126.09 88.91 126.74 87.71 127.4 87.06 128.6 86.4 127.4 85.2 126.74 86.4 126.09 87.06 124.89"/>
  </g>
  <polygon class="cls-14" points="135.26 77.29 136.01 78.65 137.37 79.4 136.01 80.14 135.26 81.51 134.52 80.14 133.15 79.4 134.52 78.65 135.26 77.29"/>
  <polygon class="cls-14" points="139.56 82.82 139.66 83.01 139.86 83.12 139.66 83.22 139.56 83.42 139.45 83.22 139.26 83.12 139.45 83.01 139.56 82.82"/>
  <polygon class="cls-14" points="125.33 72.45 125.43 72.64 125.62 72.74 125.43 72.85 125.33 73.04 125.22 72.85 125.03 72.74 125.22 72.64 125.33 72.45"/>
  <polygon class="cls-14" points="126.54 36.34 127.47 38.03 129.16 38.95 127.47 39.88 126.54 41.57 125.62 39.88 123.93 38.95 125.62 38.03 126.54 36.34"/>
  <polygon class="cls-14" points="134.14 36.03 134.66 36.99 135.62 37.51 134.66 38.04 134.14 39 133.61 38.04 132.65 37.51 133.61 36.99 134.14 36.03"/>
  <polygon class="cls-14" points="127.11 51.86 127.26 52.14 127.53 52.28 127.26 52.43 127.11 52.7 126.96 52.43 126.69 52.28 126.96 52.14 127.11 51.86"/>
  <polygon class="cls-14" points="89.52 42.23 90.46 43.95 92.18 44.89 90.46 45.83 89.52 47.55 88.58 45.83 86.87 44.89 88.58 43.95 89.52 42.23"/>
  <polygon class="cls-14" points="90.34 63.44 90.91 64.47 91.94 65.03 90.91 65.6 90.34 66.63 89.78 65.6 88.75 65.03 89.78 64.47 90.34 63.44"/>
  <polygon class="cls-14" points="65.35 44.75 65.87 45.71 66.83 46.23 65.87 46.76 65.35 47.72 64.82 46.76 63.86 46.23 64.82 45.71 65.35 44.75"/>
  <polygon class="cls-14" points="88.48 66.62 88.86 67.31 89.55 67.69 88.86 68.07 88.48 68.76 88.1 68.07 87.41 67.69 88.1 67.31 88.48 66.62"/>
  <polygon class="cls-14" points="40.86 47.95 41.86 49.77 43.68 50.77 41.86 51.76 40.86 53.58 39.87 51.76 38.05 50.77 39.87 49.77 40.86 47.95"/>
  <polygon class="cls-14" points="47.39 49.79 47.62 50.22 48.05 50.45 47.62 50.69 47.39 51.12 47.15 50.69 46.72 50.45 47.15 50.22 47.39 49.79"/>
  <polygon class="cls-14" points="25.15 89.45 25.95 90.91 27.41 91.71 25.95 92.51 25.15 93.97 24.35 92.51 22.89 91.71 24.35 90.91 25.15 89.45"/>
  <polygon class="cls-14" points="22.15 87.52 22.48 88.12 23.09 88.46 22.48 88.79 22.15 89.39 21.82 88.79 21.21 88.46 21.82 88.12 22.15 87.52"/>
  <polygon class="cls-14" points="6.79 119.27 7.86 121.23 9.82 122.3 7.86 123.38 6.79 125.34 5.72 123.38 3.76 122.3 5.72 121.23 6.79 119.27"/>
  <polygon class="cls-14" points="11.31 123.5 11.61 124.04 12.15 124.34 11.61 124.63 11.31 125.18 11.02 124.63 10.47 124.34 11.02 124.04 11.31 123.5"/>
</svg>