<?xml version="1.0" encoding="UTF-8"?>
<svg id="PRINT" xmlns="http://www.w3.org/2000/svg" viewBox="0 0 152 166.16">
  <defs>
    <style>
      .cls-1, .cls-2, .cls-3, .cls-4, .cls-5, .cls-6, .cls-7, .cls-8, .cls-9, .cls-10 {
        fill: none;
      }

      .cls-1, .cls-11, .cls-12, .cls-13, .cls-14, .cls-15, .cls-16, .cls-17, .cls-18, .cls-19, .cls-20 {
        stroke-width: 0px;
      }

      .cls-2 {
        stroke-width: .35px;
      }

      .cls-2, .cls-3, .cls-4, .cls-5, .cls-7, .cls-8, .cls-10 {
        stroke-linecap: round;
        stroke-linejoin: round;
      }

      .cls-2, .cls-3, .cls-8 {
        stroke: #2d201b;
      }

      .cls-3 {
        stroke-width: .33px;
      }

      .cls-4 {
        stroke-width: .23px;
      }

      .cls-4, .cls-5, .cls-7, .cls-10 {
        stroke: #422e22;
      }

      .cls-5 {
        stroke-width: .14px;
      }

      .cls-6 {
        stroke-width: .23px;
      }

      .cls-6, .cls-9 {
        stroke: #d9cabe;
        stroke-miterlimit: 10;
      }

      .cls-7 {
        stroke-width: .15px;
      }

      .cls-8 {
        stroke-width: .29px;
      }

      .cls-9 {
        stroke-width: .23px;
      }

      .cls-11 {
        fill: #2d201b;
      }

      .cls-12 {
        fill: #8ef;
      }

      .cls-13 {
        fill: #58535d;
      }

      .cls-14 {
        fill: #422e22;
      }

      .cls-15 {
        fill: #afa197;
      }

      .cls-16 {
        fill: #8f7afb;
      }

      .cls-17 {
        fill: #fff;
      }

      .cls-18 {
        fill: #eec06a;
      }

      .cls-19 {
        fill: #ffc261;
      }

      .cls-20 {
        fill: #e6b78f;
      }

      .cls-10 {
        stroke-width: .14px;
      }
    </style>
  </defs>
  <rect class="cls-1" width="152" height="166.16"/>
  <g>
    <path class="cls-9" d="M46.72.06c-2.06,5.79-2.7,12.15-1.36,18.15,1.34,6,4.75,11.6,9.76,15.17,9.17,6.53,21.74,5.12,31.31.26,7.54-3.83,14.34-9.07,22.25-12.16,8.72-3.41,18.55-4.31,27.77-2.82,6.42,1.04,12.93,3.39,17.33,8.18"/>
    <path class="cls-6" d="M4.28,71.76c.12,10.47,6.93,20.24,19.62,22.71,11.42,2.23,26.19-1.43,35.12,7.67,5.37,5.47,6.78,13.6,11.55,19.5,7.16,8.87,20.66,4.77,24.71-5.09,3.84-9.35-4.01-20.32-12.58-23.68-5.05-1.98-11.04-2.65-14.71-6.44-5.47-5.64-2.85-14.08-3.5-20.9-.67-7.09-4.92-14.34-10.97-18.78-13.36-9.81-33.79-3.68-43.37,8.33-4.03,5.05-5.94,10.96-5.88,16.66Z"/>
    <line class="cls-2" x1="-.83" y1="133.91" x2="143.3" y2="133.91"/>
    <polygon class="cls-19" points="135.18 157.75 9 157.75 21.91 142.04 121.16 142.37 135.18 157.75"/>
    <line class="cls-3" x1="11.3" y1="154.8" x2="132.87" y2="154.8"/>
    <path class="cls-14" d="M118.48,48.25c0,.58-.47,1.05-1.05,1.05s-1.05-.47-1.05-1.05.47-1.05,1.05-1.05,1.05.47,1.05,1.05Z"/>
    <path class="cls-5" d="M33.67,18.35c.4-.15.8-.3,1.23-.34.42-.04.88.05,1.2.33"/>
    <path class="cls-16" d="M34.34,16.35c.6-.29,1.37.04,1.74.6.37.56.41,1.27.32,1.94-.15-.37-.36-.52-.72-.71-.36-.19-.75-.28-1.14-.38.09-.59.05-.9-.19-1.45Z"/>
    <g>
      <g>
        <path class="cls-16" d="M130.24,65.82l-.11-3.26s4.01-4.4,4.71-3.74c.41.39-1.38,2.54-1.38,2.54,0,0,5.44-1.03,5.64-.31,0,.03,0,.06,0,.09-.14.12-.29.24-.42.37-.38.19-.97.35-1.55.49.54.78.4,2.14-.73,1.98.3.28.3.78.09,1.13-.21.35-.57.58-.95.73-.81.33-1.73.38-2.57.14-1.48-.07-2.71-.16-2.71-.16Z"/>
        <path class="cls-16" d="M140.77,60.62h0c.08.36-.15.71-.51.79l-6.68,1.46c-.36.08-.71-.15-.79-.51h0c-.08-.36.15-.71.51-.79l6.68-1.46c.36-.08.71.15.79.51Z"/>
        <path class="cls-16" d="M135.11,58.46h0c.27.25.29.69.04.96l-2.52,2.71c-.25.27-.69.29-.96.04h0c-.27-.25-.29-.69-.04-.96l2.52-2.71c.25-.27.69-.29.96-.04Z"/>
      </g>
      <path class="cls-20" d="M62.28,64.97h15.28c4.31,0,7.81,3.5,7.81,7.81v5.41c0,4.31-3.5,7.81-7.81,7.81h-15.28c-4.31,0-7.81-3.5-7.81-7.81v-5.42c0-4.31,3.5-7.81,7.81-7.81Z" transform="translate(-28.12 106.74) rotate(-64.88)"/>
      <path class="cls-16" d="M87.67,36.12c-.29.91-2.15,2.78-2.82,3.46-2.24,2.29-4.12,1.95-5.49,2.38.14,1.04,4.04,3.49,4.82,4.21.77.71,1.8,1.15,2.85,1.2.29.01.57,0,.86,0,.35-.01.7-.03,1.06-.04-.08-2.61.12-5.34,1.66-7.46-.52-.42-1.2-1.1-1.72-1.52-.22-.18-.45-.36-.71-.49-.41-.2-.14-1.44-.5-1.72Z"/>
      <path class="cls-11" d="M89.66,41.6c.24-.61.54-1.2.94-1.75-.52-.42-1.2-1.1-1.72-1.52-.22-.18-.45-.36-.71-.49,0,0-.01,0-.02-.01.14,1.35.7,2.63,1.51,3.77Z"/>
      <path class="cls-13" d="M65.93,52.53c.21-.48.42-.95.63-1.43-.09.06-.17.11-.26.17-.11.37-.24.8-.37,1.26Z"/>
      <path class="cls-16" d="M95.37,56.37s.78-4.55-3.08-7.36v-.02s-.16-.09-.16-.09c-.51-.35-1.09-.68-1.76-.96l-1.43-.78c-1.84-1.17-3.64-2.42-5.54-3.51-.19-.11-.38-.22-.57-.32-.52-.29-1.06-.58-1.61-.84-.02,0-.03-.02-.05-.02-.25-.12-.5-.23-.75-.34-.25-.11-.51-.21-.77-.31-.81-.31-1.63-.55-2.47-.68-.14-.02-.29-.04-.43-.06-.07,0-.15-.02-.22-.03-.21-.02-.43-.04-.65-.06,0,0-.02,0-.03,0,0,0-.02,0-.03,0-1.99-.15-4.35-.08-5.68,1.49-3.16,3.74-4.14,9.18-5.54,13.74-1.86,6.02-4.12,11.83-6.76,17.56-.03.06-.06.12-.09.18l22.26,12.01,15.35-29.59Z"/>
      <path class="cls-16" d="M93.43,37.93s0,.06-.01.09c0,.02,0,.03,0,.05,0,0,0,.02,0,.03,0,.03,0,.06-.01.09,0,0,0,.02,0,.03,0,.04-.02.08-.03.13-.01.04-.02.09-.04.13,0,.02,0,.03-.01.05,0,0,0,.02,0,.03-.01.04-.02.07-.04.11-.03.09-.07.17-.11.26,0,.02-.02.04-.03.06-.09.18-.2.35-.33.5-.03.03-.06.07-.08.1-.02.02-.03.03-.05.05-.03.03-.05.05-.08.08-.07.07-.14.13-.21.19-.03.03-.07.05-.1.08-.14.11-.29.2-.46.27-.12.06-.25.11-.38.15-.03,0-.06.02-.09.02-.02,0-.04.01-.06.02-.01,0-.02,0-.03,0-.01,0-.02,0-.03,0-.03,0-.07.01-.1.02-.2.04-.4.05-.61.04-.05,0-.09,0-.14,0-.51-.05-.98-.23-1.37-.52-.74-.54-1.2-1.44-1.16-2.43l.03-.67.09-1.97.03-.62.04-.85s0-.09,0-.14c0-.02,0-.05,0-.07,0-.02,0-.04,0-.05,0-.02,0-.04,0-.05,0,0,0,0,0-.01,0-.01,0-.02,0-.03,0-.01,0-.03,0-.04,0,0,0-.02,0-.02,0-.02,0-.04.01-.06,0-.02,0-.03.01-.05,0,0,0-.02,0-.03,0-.04.02-.07.03-.11,0-.02.01-.04.02-.06,0-.02.01-.04.02-.06,0-.02.01-.04.02-.06,0,0,0,0,0,0,0-.02.01-.04.02-.05,0-.02.01-.04.02-.06,0-.02.02-.04.02-.05.02-.04.03-.07.05-.11,0,0,0-.01.01-.02.01-.03.03-.06.04-.09,0,0,0-.01.01-.02.02-.03.03-.06.05-.09,0,0,0,0,0-.01.51-.86,1.46-1.41,2.51-1.37,1.18.05,2.16.85,2.52,1.93.11.32.16.67.14,1.03l-.18,4.12s0,.09,0,.14Z"/>
      <path class="cls-16" d="M85.7,36.56c-.03.8.57,1.47,1.35,1.5.78.03,1.45-.58,1.48-1.38.03-.8-.57-1.47-1.35-1.5-.78-.03-1.45.58-1.48,1.38Z"/>
      <path class="cls-11" d="M93.3,31.92c-.33-.53-.82-.93-1.39-1.19-.51-.23-1.07-.34-1.62-.26-.55.08-1.08.35-1.42.78.03-.07.01-.1-.02-.13-.21.23-.41.48-.6.73-.01.02-.02.04-.04.07-.06.21-.12.42-.17.63l-.16,2.95s-.04.02-.04.04c.21.37.45.72.62,1.11l.1-1.95c.28-.31.48-.69.59-1.09,0,0,0-.01,0-.02.66.29,1.46,0,2.14-.27.63.42,1.64.72,2.32.38.11-.61,0-1.25-.32-1.78Z"/>
      <path class="cls-11" d="M89.01,33.38h0c-.47-.02-.83-.43-.81-.9l.03-.59c.02-.47.43-.83.9-.81h0c.47.02.83.43.81.9l-.03.59c-.02.47-.43.83-.9.81Z"/>
      <path class="cls-11" d="M89.39,31.21c-.22-.25-.64-.28-.93-.1-.29.17-.47.5-.54.83-.07.33-.05.68-.02,1.01.05.68.09,1.35.14,2.03.17-1.37.67-2.57,1.36-3.77Z"/>
      <path class="cls-11" d="M104.28,23.68c-.85-.63-1.99-.83-3-.54-.96.28-1.76.96-2.43,1.72-.66.76-1.22,1.61-1.91,2.34-1.43,1.54-3.4,2.57-5.47,2.87-.45.06-.9.1-1.33.24-.43.15-.88.28-1.05.7-1.17-.18-1.63.72-1.45,1.64.07.36.2.69.24,1.06,0,.02,0,.05,0,.07.04.19.04.4.04.6,0,.4,0,.81,0,1.21.1,0,.25.16.35.16.12-.54.26-1.08.42-1.62.11-.35.21-.67.41-.98.02-.03.04-.06.07-.07.04-.03.1-.02.15-.02.57.05,1.22.11,1.59-.34.02.15.07.29.16.41.14.2.34.34.56.45,1.15.61,2.63.56,3.74-.14,2.13,1,4.54.27,6.59-.9,1.57-.9,2.99-2.22,3.59-3.94.6-1.72.21-3.86-1.25-4.94Z"/>
      <path class="cls-16" d="M131.13,66.01l.51-4.8-19.62,1.09-21.32-12.27c-2.05-1.18-4.67-.48-5.86,1.58-1.18,2.05-.48,4.67,1.58,5.86,3.69,2.12,7.37,4.24,11.06,6.37,2.95,1.7,5.61,3.88,8.7,5.35,3.29,1.56,5.57,1.25,8.97.48,5.32-1.21,10.65-2.43,15.97-3.65Z"/>
      <g>
        <path class="cls-16" d="M37.79,28.53c0,1.13.82,2.1,1.93,2.29l16.73,2.79c.47.08.91.3,1.25.64l16.92,16.82c1.68,1.67,4.39,1.66,6.06-.02,1.67-1.68,1.66-4.39-.02-6.06-2.57-2.56-5.15-5.12-7.72-7.68-1.94-1.93-3.88-3.86-5.82-5.79-2.33-2.32-4.24-5.35-7.73-5.51-2.31-.11-4.66.05-6.97.07-4.12.04-8.23.09-12.35.13-1.27.01-2.29,1.04-2.29,2.31Z"/>
        <line class="cls-7" x1="65.25" y1="41.84" x2="71.9" y2="48.27"/>
      </g>
      <line class="cls-7" x1="92.43" y1="62.3" x2="86.68" y2="72.95"/>
      <path class="cls-17" d="M93.53,35.38h-2.31c-.02.1-.04.2-.04.31,0,.79.65,1.43,1.46,1.44.33,0,.64-.11.89-.29v-1.45Z"/>
      <path class="cls-16" d="M66.06,69.25c-4.38-2.38-9.83-.97-14.41,1.02-.56.24-1.13.5-1.73.53-.52.03-1.04-.11-1.54-.24-6.66-1.78-13.33-3.57-19.99-5.35,2.52-10.13,4.42-20.3,6.94-30.43-1.7-.97-1.92-2.48-3.52-3.62-6.43,7.45-12.5,16.49-15.79,25.76-2.29,6.46-3.44,14.49,1.29,19.45,2.47,2.59,7.5,5.44,10.23,6.07,13.6,3.15,19.75,4.29,33.91,4.11,4.23-4.44,5.63-11.26,4.61-17.31Z"/>
      <path class="cls-16" d="M65.84,74.53c-1.41,4.36-3.29,8.56-5.6,12.52.26,5.06.39,11.15-.66,16.1-.71,3.39-2.03,6.67-2.36,10.12-.42,4.35.74,8.68,1.89,12.9,1.5,5.52,3.01,11.04,4.51,16.56l5.45,1.42c2.59-15.67,2.41-34.55,5.36-50.15.9-4.76,5.54-10.95,5.22-14.32-3.55-1.86-10.6-2.74-13.8-5.15Z"/>
      <path class="cls-11" d="M65.85,68.72c-4.82-2.62-10.82-1.06-15.85,1.13-.61.27-1.24.55-1.91.58-.57.03-1.14-.12-1.7-.27-.9-.24-1.81-.48-2.71-.73.66,6.26,2.51,12.32,5.05,18.1,3.53.22,7.39.29,12.04.23,4.66-4.88,6.19-12.39,5.08-19.04Z"/>
      <path class="cls-11" d="M60.34,96.63c1.47-.25,2.94-.55,4.39-.91,3.23-.79,6.35-1.86,9.47-3.01.2-.07.4-.15.6-.22,1.42-4.49,5.12-9.78,4.83-12.81-3.55-1.86-10.6-2.74-13.8-5.15-1.41,4.36-3.29,8.56-5.6,12.52.15,2.98.26,6.32.1,9.58Z"/>
      <path class="cls-16" d="M61.45,133.6c.74,3.01.85,6.37-.75,9.03-1.07,1.79-2.82,3.1-3.81,4.94-1.44,2.67-.69,6.52,1.99,7.95l29.55,1.25s-.02-.06-.03-.08c-.23-.59-.75-.99-1.36-1.16-.38-.1-.74-.32-1.05-.57-.53-.44-.96-1.01-1.54-1.4-1.13-.78-2.59-.77-3.96-.85-1.86-.11-3.73-.42-5.41-1.23-1.68-.81-3.15-2.15-3.83-3.88-.34-.86-.48-1.79-.61-2.71-.86-6.24.44-13.92.45-20.22-2.35,2.35-6.78,7.26-9.65,8.94Z"/>
      <path class="cls-8" d="M65.58,142.64c-1.74.82-2.81,2.86-2.5,4.76.31,1.9,1.97,3.49,3.88,3.72"/>
      <path class="cls-16" d="M30.03,33.41c-.35-5.16,1.83-10.18,2.05-15.35.02-.54.03-1.09.22-1.59.19-.5.61-.96,1.14-1.02.54-.06,1.06.31,1.34.78.28.47.37,1.02.46,1.56.93.33,1.71.96,2.24,1.79.34.54.57,1.14.63,1.78.17,1.94-1.3,3.58-2.67,4.96,1.84,1.17,2.91,3.5,2.8,5.68-.11,2.18-1.64,4.26-3.75,4.84-.27.07-.55.13-.83.09-.33-.04-.63-.19-.92-.36-1.71-1.03-2.58-1.17-2.71-3.16Z"/>
      <path class="cls-11" d="M30.17,30c1.27,6.05,4.56,6.73,4.72,6.68,2.1-.58,3.23-2.51,3.34-4.69.11-2.18-.96-4.5-2.8-5.68,1.32-1.33,2.73-2.9,2.68-4.75-2.24-.03-4.46.17-6.26,1.67-.21.17-.41.36-.61.55-.41,1.97-.86,3.94-1.09,5.92.02.09,0,.19.01.3Z"/>
      <g>
        <path class="cls-16" d="M36.77,25.65c-1.02-.44-2.19-.53-3.26-.24-.5.13-1,.36-1.32.77-.32.41-.39,1.03-.07,1.43-.93.16-1.52,1.22-1.24,2.37-.76.08-1.53.2-2.03.37-.19.14-.39.27-.59.4-.01.03-.02.07-.01.11.12.83,8,.23,9.25.16h0c.45.06.51,1.08.71,1.37,1.52.33,2.69-1.82,2.69-1.82l-.74-4.27s-1.53-.32-3.38-.64Z"/>
        <path class="cls-16" d="M27.87,30.96h0c-.04-.46.3-.87.77-.91l8.64-.75c.46-.04.87.3.91.76h0c.04.46-.3.87-.76.91l-8.64.75c-.46.04-.87-.3-.91-.76Z"/>
      </g>
      <path class="cls-8" d="M31.36,35.06c-.67.33-1.22.9-1.52,1.58-.38.85-.37,1.82-.35,2.75"/>
      <path class="cls-8" d="M18.14,67.95c-.42,2.16.2,4.98,2.39,5.93"/>
      <path class="cls-12" d="M95.37,56.37s.78-4.55-3.08-7.36v-.02s-.16-.09-.16-.09c-.51-.35-1.09-.68-1.76-.96l-1.43-.78c-1.84-1.17-3.64-2.42-5.54-3.51-.19-.11-.38-.22-.57-.32-.52-.29-1.06-.58-1.61-.84-.02,0-.03-.02-.05-.02-.25-.12-.5-.23-.75-.34-.25-.11-.51-.21-.77-.31-.81-.31-1.63-.55-2.47-.68-.14-.02-.29-.04-.43-.06-.07,0-.15-.02-.22-.03-.21-.02-.43-.04-.65-.06,0,0-.02,0-.03,0,0,0-.02,0-.03,0-1.99-.15-4.35-.08-5.68,1.49-3.16,3.74-4.14,9.18-5.54,13.74-.9,2.93-1.92,5.8-3.15,8.6-1.58,3.59-3.12,6-.45,9.55,3.5,4.66,8.07,8.51,13.22,11.23,1.57.83,6.51,3.82,8.28,3.23.97-.32,1.29-2.04,1.67-3.05,2.72-7.16,5.44-14.31,8.17-21.47,1.01-2.64,2.01-5.29,3.02-7.93Z"/>
      <path class="cls-12" d="M68.88,50.51c-1.82-1.6-3.46-3.39-4.9-5.33,1.08-4.82,2.42-9.44,3.5-14.26,0,0,5.97,4.14,9.33,6.78,3.36,2.64,6.94,7.85,7.05,12.13-5.27-.32-9.72.34-14.99.68Z"/>
      <path class="cls-12" d="M89.41,48.16c1.45-.3,2.95.09,4.33.61,3.42,1.29,6.45,3.4,9.44,5.5,1.19,4.92.5,10.8-2.13,15.11-3.46-2-7.47-4.15-10.82-6.33-.81-4.7-1.6-10.19-.82-14.89Z"/>
      <path class="cls-8" d="M91.95,65.08c1.28-2.66,1.96-5.6,1.99-8.56"/>
      <line class="cls-10" x1="29.96" y1="31.54" x2="38.36" y2="30.9"/>
      <path class="cls-10" d="M33.61,27.15c-.63.02-1.23.46-1.45,1.05"/>
      <path class="cls-8" d="M71.06,44c1.11,3.75,4.96,10.41,6.88,13.82"/>
      <path class="cls-8" d="M68.71,106.77c.04,2.68.39,5.35,1.03,7.95"/>
      <path class="cls-8" d="M79.43,40.3c.11,2.39,1.46,4.65,3.42,6.03s4.45,1.91,6.83,1.65"/>
      <path class="cls-8" d="M84.06,86.62c-10.35-2.64-18.82-9.47-23.67-18.99"/>
    </g>
    <g>
      <path class="cls-12" d="M100.41,106.26c1.41,1.09,3.22,1.87,5.07,1.73,1.74-.14,3.19-1.21,3.71-2.73.95-2.8-1.14-5.46-3.37-7.2-1.67-1.3-4.05-2.96-6.41-2.67-2.94.36-3.1,3.59-2.53,5.67.56,2.01,1.8,3.86,3.53,5.21Z"/>
      <path class="cls-12" d="M110.63,97.09c-.93,2.33-.34,5.27,1.87,6.73,4.49,2.96,8.71.47,9.88-4.01.97-3.7-1.2-11.12-7.06-7.92-2.03,1.11-3.89,3.18-4.69,5.2Z"/>
      <path class="cls-12" d="M115.6,76.16c-1.8,1.45-3.4,3.18-4.25,5.22-.85,2.04-.86,4.45.36,6.33,1.71,2.64,5.63,3.12,8.42,1.53,3.33-1.89,5.52-5.34,6.25-8.78.29-1.39.35-2.84-.06-4.21-.55-1.81-1.75-3.39-3.92-3.17-2.61.27-4.86,1.51-6.79,3.07Z"/>
      <path class="cls-8" d="M102.21,100.88c6.3,7.59,9.53,17.22,8.95,26.7"/>
      <path class="cls-8" d="M116.68,99.05c-3.59,6.51-4.86,14.26-3.5,24.85-1.07-8.29-1.91-17.1-1.46-25.51.38-7.17,1.78-15.45,8.36-20.24.33-.24.67-.47,1.03-.69"/>
      <path class="cls-12" d="M122.12,105.63c-1.85,1.29-2.92,3.64-2.08,5.61,1.72,4,6.01,3.97,9.13,1.25,2.58-2.25,4.79-8.49-1.04-8.63-2.02-.05-4.4.66-6.01,1.77Z"/>
      <path class="cls-12" d="M126.27,93.49c-2.01,1.4-3.17,3.95-2.25,6.09,1.87,4.34,6.53,4.31,9.91,1.35,2.79-2.44,5.2-9.21-1.13-9.37-2.19-.06-4.78.71-6.52,1.92Z"/>
      <path class="cls-8" d="M116.16,117.13c1.98-4.83,6.71-8.66,12.23-9.88"/>
      <path class="cls-8" d="M113.93,120.74c.89-7.69,6.34-19.41,17.71-24.73"/>
      <g>
        <path class="cls-15" d="M120.95,140.78h-16.14c-3.08,0-5.43-2.41-4.94-5.06l3.65-19.76h17.81l4.52,19.59c.62,2.7-1.74,5.23-4.9,5.23Z"/>
        <g>
          <path class="cls-8" d="M100.67,130.64c2.77.53,5.66-.55,7.89-2.09,2.23-1.54,4-3.51,6.1-5.19,2.09-1.68,4.68-3.1,7.52-3.12"/>
          <path class="cls-8" d="M122.6,121.94c-4.07.28-7.67,2.74-9.63,5.86-1.96,3.12-2.44,6.82-2.1,10.37"/>
          <path class="cls-8" d="M101.53,125.82c2.98-.12,5.9-1.2,8.07-2.99,2.17-1.79,3.56-4.28,3.85-6.87"/>
          <path class="cls-11" d="M124.08,127.89c-1,.46-1.96.99-2.86,1.62-1.26.88-2.41,1.86-3.28,3.06-.8,1.12-1.41,2.33-2.06,3.51-.3.55-1.21.7-1.77.41-3.88-2.06-7.8.91-9.2,4.3h16.03c3.16,0,5.53-2.52,4.9-5.23l-1.77-7.67Z"/>
        </g>
      </g>
    </g>
    <circle class="cls-4" cx="10.18" cy="98.09" r="1.89"/>
    <path class="cls-4" d="M43.47,119.19c0,1.05-.85,1.89-1.89,1.89s-1.89-.85-1.89-1.89.85-1.89,1.89-1.89,1.89.85,1.89,1.89Z"/>
    <circle class="cls-4" cx="19.22" cy="99.14" r=".42"/>
    <path class="cls-4" d="M45.58,124.1c0,.23-.19.42-.42.42s-.42-.19-.42-.42.19-.42.42-.42.42.19.42.42Z"/>
    <path class="cls-4" d="M127.31,52.24c0,1.05-.85,1.89-1.89,1.89s-1.89-.85-1.89-1.89.85-1.89,1.89-1.89,1.89.85,1.89,1.89Z"/>
    <path class="cls-4" d="M115.12,52.88c0,.46-.38.84-.84.84s-.84-.38-.84-.84.38-.84.84-.84.84.38.84.84Z"/>
    <path class="cls-4" d="M139.51,81.9c0,.7-.56,1.26-1.26,1.26s-1.26-.56-1.26-1.26.56-1.26,1.26-1.26,1.26.56,1.26,1.26Z"/>
    <path class="cls-4" d="M141.61,116.39c0,.93-.75,1.68-1.68,1.68s-1.68-.75-1.68-1.68.75-1.68,1.68-1.68,1.68.75,1.68,1.68Z"/>
    <path class="cls-4" d="M97.45,82.74c0,.7-.56,1.26-1.26,1.26s-1.26-.56-1.26-1.26.56-1.26,1.26-1.26,1.26.56,1.26,1.26Z"/>
    <path class="cls-4" d="M11.65,30.16c0,1.16-.94,2.1-2.1,2.1s-2.1-.94-2.1-2.1.94-2.1,2.1-2.1,2.1.94,2.1,2.1Z"/>
    <circle class="cls-4" cx="20.27" cy="26.59" r=".63"/>
    <path class="cls-14" d="M141.19,86.94c0,.46-.38.84-.84.84s-.84-.38-.84-.84.38-.84.84-.84.84.38.84.84Z"/>
    <path class="cls-14" d="M137.41,121.64c0,.35-.28.63-.63.63s-.63-.28-.63-.63.28-.63.63-.63.63.28.63.63Z"/>
    <circle class="cls-14" cx="94.3" cy="85.89" r="1.05"/>
    <path class="cls-14" d="M7.02,104.4c0,.58-.47,1.05-1.05,1.05s-1.05-.47-1.05-1.05.47-1.05,1.05-1.05,1.05.47,1.05,1.05Z"/>
    <path class="cls-14" d="M47.4,112.46c0,.58-.47,1.05-1.05,1.05s-1.05-.47-1.05-1.05.47-1.05,1.05-1.05,1.05.47,1.05,1.05Z"/>
    <circle class="cls-14" cx="14.8" cy="24.06" r="1.05"/>
    <polygon class="cls-18" points="5.38 40.06 6.36 41.84 8.14 42.82 6.36 43.8 5.38 45.58 4.4 43.8 2.62 42.82 4.4 41.84 5.38 40.06"/>
    <polygon class="cls-18" points="8.42 37.59 8.67 38.05 9.12 38.29 8.67 38.54 8.42 39 8.18 38.54 7.72 38.29 8.18 38.05 8.42 37.59"/>
    <polygon class="cls-18" points="122.69 28.5 124.02 30.94 126.45 32.27 124.02 33.6 122.69 36.03 121.36 33.6 118.92 32.27 121.36 30.94 122.69 28.5"/>
    <polygon class="cls-18" points="130.26 38.09 130.73 38.95 131.59 39.42 130.73 39.89 130.26 40.75 129.79 39.89 128.93 39.42 129.79 38.95 130.26 38.09"/>
    <polygon class="cls-18" points="103.76 38.9 104.09 39.5 104.7 39.84 104.09 40.17 103.76 40.78 103.43 40.17 102.82 39.84 103.43 39.5 103.76 38.9"/>
    <polygon class="cls-18" points="143.3 98.89 143.83 99.87 144.81 100.4 143.83 100.94 143.3 101.92 142.76 100.94 141.78 100.4 142.76 99.87 143.3 98.89"/>
    <polygon class="cls-18" points="131.1 122.7 131.4 123.24 131.94 123.54 131.4 123.83 131.1 124.38 130.8 123.83 130.26 123.54 130.8 123.24 131.1 122.7"/>
    <polygon class="cls-18" points="147.08 90.26 147.7 91.38 148.82 91.99 147.7 92.6 147.08 93.73 146.47 92.6 145.35 91.99 146.47 91.38 147.08 90.26"/>
    <polygon class="cls-18" points="95.77 72.59 96.38 73.71 97.5 74.33 96.38 74.94 95.77 76.06 95.16 74.94 94.03 74.33 95.16 73.71 95.77 72.59"/>
    <polygon class="cls-18" points="15.01 105.99 16.01 107.82 17.83 108.82 16.01 109.81 15.01 111.64 14.01 109.81 12.19 108.82 14.01 107.82 15.01 105.99"/>
  </g>
</svg>