<?xml version="1.0" encoding="UTF-8"?>
<svg id="PRINT" xmlns="http://www.w3.org/2000/svg" viewBox="0 0 152 166.16">
  <defs>
    <style>
      .cls-1 {
        stroke-width: .11px;
      }

      .cls-1, .cls-2, .cls-3, .cls-4, .cls-5, .cls-6, .cls-7, .cls-8, .cls-9, .cls-10, .cls-11, .cls-12, .cls-13 {
        fill: none;
      }

      .cls-1, .cls-2, .cls-4, .cls-5, .cls-6, .cls-7, .cls-9, .cls-10, .cls-11, .cls-13 {
        stroke-linecap: round;
        stroke-linejoin: round;
      }

      .cls-1, .cls-5 {
        stroke: #3f3227;
      }

      .cls-2 {
        stroke-width: .31px;
      }

      .cls-2, .cls-4, .cls-9 {
        stroke: #2e2521;
      }

      .cls-3 {
        stroke-width: .19px;
      }

      .cls-3, .cls-6, .cls-8, .cls-11, .cls-12 {
        stroke: #292727;
      }

      .cls-3, .cls-8, .cls-12 {
        stroke-miterlimit: 10;
      }

      .cls-4 {
        stroke-width: .31px;
      }

      .cls-5 {
        stroke-width: .2px;
      }

      .cls-6 {
        stroke-width: .2px;
      }

      .cls-7 {
        stroke: #de9efb;
        stroke-width: .49px;
      }

      .cls-8 {
        stroke-width: .15px;
      }

      .cls-9 {
        stroke-width: .23px;
      }

      .cls-10 {
        stroke: #8479f2;
        stroke-width: .41px;
      }

      .cls-11 {
        stroke-width: .17px;
      }

      .cls-12 {
        stroke-width: .17px;
      }

      .cls-14 {
        fill: #f9f5e6;
      }

      .cls-14, .cls-15, .cls-16, .cls-17, .cls-18, .cls-19, .cls-20, .cls-21, .cls-22, .cls-23 {
        stroke-width: 0px;
      }

      .cls-15 {
        fill: #292727;
      }

      .cls-16 {
        fill: #2e2521;
      }

      .cls-17 {
        fill: #2f2a26;
      }

      .cls-18 {
        fill: #a7e8fd;
      }

      .cls-19 {
        fill: #de9efb;
      }

      .cls-20 {
        fill: #cfc4b8;
      }

      .cls-21 {
        fill: #8479f2;
      }

      .cls-22 {
        fill: #fff;
      }

      .cls-23 {
        fill: #f0c66c;
      }

      .cls-13 {
        stroke: #fff;
        stroke-width: 1.53px;
      }
    </style>
  </defs>
  <path class="cls-16" d="M29.53,146.4c-2.17-1.03-5.02-1.04-6.52.72-1,1.17-1.32,2.8-.7,4.22.81,1.85,2.86,2.96,4.88,3.01,1.8.04,3.9-.92,4.76-2.6,1.08-2.12-.47-4.43-2.42-5.35Z"/>
  <path class="cls-14" d="M116.21,84.48c-1.38-5.27-3.09-10.5-3.69-15.92-.57-5.14-.11-10.35.69-15.47.63-4,1.46-8.14.39-12.04-1.07-3.9-4.81-7.44-8.79-6.7-2.65.49-4.67,2.68-6.03,5.01-.91,1.55-1.62,3.19-2.19,4.88l-.28-25.19c-.06-5.78-4.8-10.41-10.58-10.35-4.43.05-8.18,2.84-9.67,6.75l-.03-2.91c-.06-5.78-4.8-10.41-10.58-10.35-5.78.06-10.41,4.8-10.35,10.58l.09,8.14c-1.19-4.48-5.27-7.78-10.12-7.78-5.78,0-10.47,4.69-10.47,10.47v39.53c0,3.33.5,7.26-.14,10.47.17-.86-4.24-5.62-4.83-6.37-2.04-2.58-4.26-5.04-6.83-7.11-4.03-3.25-17.74-10.34-18.77-.58-.76,7.23,9.52,10.73,13.35,15.25,6.21,7.31,3.49,16.99,2.34,25.5-3.84,28.32,18.12,56.29,47.3,56.29,9.69,0,19.25-3.01,27.18-8.58,19.59-13.77,28-40.68,22.01-63.52ZM55.65,63.3s-.08.02-.12.03v-10.89l.12,10.86Z"/>
  <polygon class="cls-23" points="43.27 82.73 44.35 84.7 46.32 85.78 44.35 86.85 43.27 88.82 42.2 86.85 40.23 85.78 42.2 84.7 43.27 82.73"/>
  <polygon class="cls-23" points="34.18 121.23 35.78 124.14 38.69 125.73 35.78 127.32 34.18 130.23 32.59 127.32 29.68 125.73 32.59 124.14 34.18 121.23"/>
  <polygon class="cls-23" points="48.86 77.89 49.39 78.85 50.34 79.37 49.39 79.89 48.86 80.85 48.34 79.89 47.38 79.37 48.34 78.85 48.86 77.89"/>
  <polygon class="cls-23" points="27.92 130.08 28.45 131.03 29.4 131.56 28.45 132.08 27.92 133.04 27.4 132.08 26.44 131.56 27.4 131.03 27.92 130.08"/>
  <polygon class="cls-23" points="30.2 12.41 31.28 14.38 33.25 15.46 31.28 16.54 30.2 18.51 29.12 16.54 27.15 15.46 29.12 14.38 30.2 12.41"/>
  <polygon class="cls-23" points="34.46 9.23 35.08 10.37 36.22 10.99 35.08 11.62 34.46 12.75 33.84 11.62 32.7 10.99 33.84 10.37 34.46 9.23"/>
  <path class="cls-16" d="M47.5,56.86c-.35-1.76-1.63-3.47-3.35-3.58-1.15-.07-2.27.46-2.84,1.47-.75,1.31-.49,3.04.38,4.27.78,1.1,2.3,1.92,3.68,1.68,1.75-.3,2.44-2.26,2.12-3.84Z"/>
  <ellipse class="cls-8" cx="43.73" cy="47.2" rx="1.95" ry="2.28" transform="translate(-20.26 53.93) rotate(-53.19)"/>
  <path class="cls-12" d="M40.44,141.57c-.71.95-2.18,1.05-3.29.22-1.11-.83-1.43-2.27-.72-3.22.71-.95,2.18-1.05,3.29-.22,1.11.83,1.43,2.27.72,3.22Z"/>
  <path class="cls-7" d="M-28.59,133.99c3.63-12.12,9.88-23.44,18.2-32.97,3-3.44,6.39-6.73,10.64-8.4,4.25-1.67,9.52-1.4,12.86,1.7,3.35,3.12,4,8.17,3.72,12.74-.37,6.06-2.99,12.89-8,15.61-1.43.78-2.88-1.01-1.84-2.27,3.19-3.9,9.8-5.15,13.73-1.73,2.81,2.45,3.94,6.33,6.48,9.06,7.64,8.2,22.11,1.75,32.11,6.8"/>
  <path class="cls-13" d="M70.35,55.76c.94-1.16,2.51-1.64,3.97-1.45,3,.38,4.76,3.25,5.08,6.03.34,3-.97,5.96-3.4,7.73-5.81,4.24-13.62.19-15.53-6.19-1.73-5.81,1.26-12.1,6.35-15.13,5.31-3.16,11.83-2.18,16.42,1.79,4.73,4.08,7.15,10.5,6.04,16.68-1.15,6.38-5.66,11.9-11.56,14.5-5.94,2.62-12.93,2.18-18.43-1.29-5.24-3.31-8.78-9-9.44-15.16-.8-7.48,1.1-15.33,5.4-21.23,3.78-5.19,8.76-10.02,11.14-16.2,2.88-7.48,1-15.71,1-23.47"/>
  <path class="cls-13" d="M29.82,105.85c8.05,2.2,15.01,8.1,18.51,15.67,1.49,3.24,2.37,6.72,2.99,10.23.91,5.16,1.27,10.43,1.08,15.67"/>
  <g>
    <g>
      <path class="cls-19" d="M38.96,83.39c-1.34.55-2.45,1.67-2.66,3.15-.21,1.44.3,2.91,1.01,4.17.86-.56,1.69-1.27,2.55-1.83-.6,1.02-1.2,2.05-1.81,3.07.76,2.36,2.2,4.57,4.05,6.19,1.03-.03,2.12-.16,3.07-.53-.59.51-1.18,1.02-1.77,1.53-.18.16,3.17,3.02,3.41,3.21.91.74,1.74,1.62,2.76,2.2,3.54,2.02,3.89-2.26,3.35-4.73-.54-2.46-1.42-4.84-2.62-7.05-.12.85-.39,1.67-.78,2.43.12-1.57-.21-2.88-.17-4.46-1.02-1.24-2.16-2.8-3-4.17-1.1.22-2.21.36-3.33.41.88-.48,1.84-.82,2.82-1.01-.87-1.29-2.45-2.38-3.95-2.79-.95-.26-2-.16-2.94.22Z"/>
      <path class="cls-11" d="M39.71,85.49s14.79,19.27,16.62,31.46"/>
      <line class="cls-11" x1="41.91" y1="83.17" x2="43.77" y2="91.12"/>
      <line class="cls-11" x1="39.2" y1="94.54" x2="44.85" y2="92.83"/>
    </g>
    <g>
      <path class="cls-19" d="M22.93,92.74c-1,1.05-1.55,2.52-1.14,3.96.4,1.4,1.46,2.53,2.63,3.4.56-.87,1.03-1.85,1.58-2.72-.13,1.18-.26,2.36-.4,3.54,1.65,1.84,3.87,3.27,6.23,4,.92-.45,1.87-1.01,2.59-1.74-.33.71-.66,1.41-1,2.12-.1.22,4.13,1.46,4.42,1.54,1.13.3,2.25.76,3.42.88,4.05.4,2.63-3.65,1.13-5.69-1.5-2.03-3.28-3.84-5.27-5.37.24.82.33,1.68.28,2.54-.53-1.48-1.37-2.55-1.98-4-1.44-.72-3.11-1.67-4.44-2.58-.91.65-1.88,1.23-2.88,1.73.61-.8,1.34-1.5,2.16-2.08-1.32-.83-3.21-1.17-4.74-.93-.97.15-1.89.67-2.6,1.41Z"/>
      <path class="cls-11" d="M24.48,94.35s23.99,13.2,29.68,21.42"/>
      <line class="cls-11" x1="25.53" y1="91.33" x2="29.5" y2="97.26"/>
      <line class="cls-11" x1="27.71" y1="102.81" x2="31.26" y2="98.24"/>
    </g>
    <g>
      <path class="cls-19" d="M67.51,73.9c2.21.11,4.36,1.17,5.41,3.19,1.02,1.98,1.03,4.33.64,6.51-1.52-.38-3.07-.97-4.6-1.35,1.38,1.17,2.76,2.34,4.14,3.51.1,3.77-.87,7.68-2.72,10.95-1.49.47-3.12.84-4.69.78,1.11.43,2.21.87,3.32,1.3.35.14-3.04,5.94-3.28,6.33-.94,1.52-1.69,3.2-2.87,4.55-4.07,4.68-6.74-1.29-7.21-5.12-.46-3.81-.39-7.68.22-11.46.6,1.16,1.4,2.21,2.35,3.1-.97-2.2-1.15-4.25-2-6.5.84-2.3,1.7-5.11,2.22-7.51,1.69-.24,3.36-.6,5-1.09-1.51-.25-3.06-.26-4.57-.04.6-2.3,2.33-4.66,4.27-6,1.23-.85,2.8-1.24,4.35-1.16Z"/>
      <path class="cls-6" d="M68.18,76.81s-9.69,22.32-8.69,40.32"/>
      <line class="cls-6" x1="58.04" y1="84.73" x2="62.41" y2="94.1"/>
      <line class="cls-6" x1="57.31" y1="86.58" x2="61.82" y2="96.14"/>
    </g>
    <path class="cls-20" d="M43.71,114.7v23.69c0,6.87,5.62,12.5,12.5,12.5h0c6.87,0,12.5-5.62,12.5-12.5v-23.69h-25Z"/>
    <path class="cls-16" d="M64.82,123.26c-2.98,2.6-4.36,6.47-4.87,10.31-.09.71-.46,1.55-1.28,1.69-6.3,1.05-9.17,6.84-10.12,12.99,2.12,1.65,4.78,2.64,7.66,2.64h0c6.87,0,12.5-5.62,12.5-12.5v-17.34c-1.41.49-2.73,1.2-3.89,2.21Z"/>
    <polyline class="cls-4" points="47.28 147.86 50.08 147.86 64.11 147.86"/>
    <g>
      <path class="cls-4" d="M48.04,158.03v-10.17,10.17Z"/>
      <line class="cls-4" x1="52.97" y1="148" x2="48.04" y2="158.03"/>
    </g>
    <g>
      <path class="cls-4" d="M63.52,157.86v-10.17,10.17Z"/>
      <line class="cls-4" x1="58.58" y1="147.83" x2="63.52" y2="157.86"/>
    </g>
    <line class="cls-4" x1="43.96" y1="117.73" x2="68.45" y2="117.73"/>
  </g>
  <ellipse class="cls-15" cx="117.23" cy="156.85" rx="38.21" ry="2.88"/>
  <path class="cls-16" d="M143.08,103.6c-2.17-1.03-5.02-1.04-6.52.72-1,1.17-1.32,2.8-.7,4.22.81,1.85,2.86,2.96,4.88,3.01,1.8.04,3.9-.92,4.76-2.6,1.08-2.12-.47-4.43-2.42-5.35Z"/>
  <ellipse class="cls-3" cx="146.44" cy="95.27" rx="2.36" ry="2.75" transform="translate(-17.58 155.42) rotate(-53.18)"/>
  <polygon class="cls-23" points="86.87 111.78 88.46 114.69 91.38 116.29 88.46 117.88 86.87 120.79 85.28 117.88 82.37 116.29 85.28 114.69 86.87 111.78"/>
  <polygon class="cls-23" points="90.54 105.91 91.06 106.86 92.02 107.39 91.06 107.91 90.54 108.87 90.01 107.91 89.06 107.39 90.01 106.86 90.54 105.91"/>
  <polygon class="cls-23" points="142.36 64.56 143.8 67.21 146.45 68.65 143.8 70.1 142.36 72.74 140.91 70.1 138.27 68.65 140.91 67.21 142.36 64.56"/>
  <polygon class="cls-23" points="140.26 16.02 141.7 18.66 144.35 20.11 141.7 21.55 140.26 24.19 138.81 21.55 136.17 20.11 138.81 18.66 140.26 16.02"/>
  <polygon class="cls-23" points="150.73 73.8 151.32 74.87 152.39 75.46 151.32 76.04 150.73 77.11 150.15 76.04 149.08 75.46 150.15 74.87 150.73 73.8"/>
  <polygon class="cls-23" points="149.76 31.34 150.34 32.41 151.41 32.99 150.34 33.58 149.76 34.65 149.17 33.58 148.1 32.99 149.17 32.41 149.76 31.34"/>
  <polygon class="cls-23" points="94.79 11.7 95.38 12.77 96.45 13.36 95.38 13.94 94.79 15.01 94.21 13.94 93.14 13.36 94.21 12.77 94.79 11.7"/>
  <polygon class="cls-23" points="131.85 13.61 132.67 15.13 134.19 15.96 132.67 16.78 131.85 18.3 131.02 16.78 129.51 15.96 131.02 15.13 131.85 13.61"/>
  <path class="cls-7" d="M162.47,103.39c-8.82,7.14-8.18,21.25-15.62,29.81-5.15,5.93-13.39,8.21-21.23,8.71-7.84.49-15.74-.49-23.56.29-7.82.79-15.96,3.75-20.41,10.22-2.76,4.01-3.82,8.99-3.85,13.85"/>
  <ellipse class="cls-15" cx="66.2" cy="158.18" rx="29.05" ry="3.12"/>
  <path class="cls-13" d="M105.01,84.75c-3.43-.44-6.91.41-10.09,1.76-11.16,4.72-19.13,15.68-21.38,27.58-2.25,11.91.88,24.5,7.41,34.7"/>
  <g>
    <g>
      <g>
        <g>
          <rect class="cls-21" x="101.44" y="40.56" width="21.84" height="20.64"/>
          <path class="cls-16" d="M101.38,48.94h21.83c.18-2.05,0-3.57.12-5.36.1-1.57.25-3.16.55-4.71.3-1.53.73-3.3,1.15-4.8,1.05-3.78,3.61-6.93,2.86-10.78-.6-3.1-4.15-8-7.49-9.23-1.33-.49-2.81-.2-4.19-.3-2.21-.16-4.42-.41-6.64-.48-4.66-.14-10.6.65-12.82,5.36-1.97,4.17-1,8.62.18,12.83,1.38,4.88,3,9.71,3.93,14.7.06.31.34,1.54.51,2.77Z"/>
          <path class="cls-18" d="M114.7,7.68c-.07,2.49,1.1,5.42,1.63,6.36-.31.19-.61.37-.92.56-.25.15-.5.3-.76.43-.97.47-2.09.58-3.13.31-1.03-.27-1.99-.99-2.62-1.87.61-.64,1.19-1.8,1.56-5.69l4.23-.1Z"/>
        </g>
        <path class="cls-17" d="M111.24,4.54c.8.17,1.23,1.01,1.12,1.76-.11.75-.65,1.41-1.26,1.94-.31-.91-.52-1.72-.83-2.64-.11-.34-.19-.79.13-1.01.18-.12.62-.1.83-.05Z"/>
        <path class="cls-18" d="M115.01,8.68s0,.09,0,.13c0,.03,0,.06,0,.09,0,.01,0,.03,0,.04,0,0,0,.02,0,.03,0,.03,0,.06,0,.08v.03s-.02.08-.02.12c0,.04-.02.08-.03.13,0,.01,0,.03-.01.04,0,0,0,.02,0,.03,0,.03-.02.07-.03.1-.03.08-.05.16-.09.25,0,.02-.02.04-.03.06-.08.17-.17.33-.28.48-.02.03-.05.06-.07.1-.01.02-.03.03-.04.05-.02.03-.05.05-.07.08-.06.07-.12.13-.19.19-.03.03-.06.05-.09.08-.07.06-.15.12-.23.17-.06.04-.12.08-.18.11-.11.06-.23.11-.35.16-.03,0-.05.02-.08.03-.02,0-.04.01-.06.02,0,0-.02,0-.03,0,0,0-.02,0-.03,0-.03,0-.06.02-.09.02-.18.05-.38.07-.57.07-.04,0-.09,0-.13,0-.48-.02-.93-.17-1.31-.42-.38-.25-.69-.59-.9-1-.19-.37-.3-.78-.31-1.22v-.63s-.02-1.85-.02-1.85h0s0-.58,0-.58v-.8s0-.09,0-.13c0-.02,0-.04,0-.06,0-.02,0-.03,0-.05,0-.02,0-.04,0-.05,0,0,0,0,0-.01,0-.01,0-.02,0-.03,0-.01,0-.03,0-.04,0,0,0-.01,0-.02,0-.02,0-.04,0-.05,0-.02,0-.03,0-.05,0,0,0-.02,0-.03,0-.03.02-.07.02-.11,0-.02,0-.04.01-.06,0-.02,0-.04.02-.05,0-.02.01-.03.01-.05t0,0s.01-.03.02-.05c0-.02.01-.04.02-.05,0-.02.01-.03.02-.05.04-.11.09-.22.15-.33.02-.04.05-.09.07-.13,0-.02.02-.03.03-.05.03-.04.06-.08.08-.13,0,0,0-.01.01-.02.02-.03.05-.06.07-.09.02-.02.03-.04.05-.05,0,0,0,0,0,0,.47-.56,1.18-.93,1.96-.93.97,0,1.83.53,2.28,1.32.07.12.13.24.17.36.12.3.18.62.19.96l.03,3.87Z"/>
        <path class="cls-18" d="M108.13,7.13c0,.57.46,1.02,1.02,1.02.56,0,1.01-.47,1-1.04,0-.57-.46-1.02-1.02-1.02-.56,0-1.01.47-1,1.04Z"/>
        <path class="cls-18" d="M114.41,7.33c0,.57.46,1.02,1.02,1.02.56,0,1.01-.47,1-1.04,0-.57-.46-1.02-1.02-1.02-.56,0-1.01.47-1,1.04Z"/>
        <line class="cls-9" x1="101.46" y1="51.4" x2="123.12" y2="51.4"/>
        <path class="cls-16" d="M114.55,7.63c-.05-.07-.08-.14-.1-.21.04.07.08.14.1.21Z"/>
        <path class="cls-16" d="M114.97,4.82c0-.34-.07-.66-.19-.96-.05-.12-.11-.24-.17-.36-.46-.8-1.31-1.33-2.28-1.32-.78,0-1.49.37-1.96.93,0,0,0,0,0,0-.02.02-.03.04-.05.05-.03.03-.05.06-.07.09,0,0,0,.01-.01.02-.03.04-.06.08-.08.13-.01.02-.02.03-.03.05-.03.04-.05.08-.07.13-.05.1-.1.21-.15.33,0,.02-.01.03-.02.05,0,.02-.01.03-.02.05,0,.02-.01.03-.02.05t0,0s0,.04-.01.05c0,.02,0,.03-.02.05,0,.02,0,.04-.01.06,0,.03-.02.07-.02.11,0,0,0,.02,0,.03,0,.02,0,.03,0,.05,0,.02,0,.04,0,.05,0,0,0,.02,0,.02,0,.01,0,.02,0,.04,0,0,0,.02,0,.03,0,0,0,0,0,.01,0,.02,0,.03,0,.05,0,.02,0,.03,0,.05,0,.02,0,.04,0,.06,0,.04,0,.09,0,.13v.8s.01.58.01.58h0s.02,1.86.02,1.86v.63c.01.44.12.86.31,1.22.21.41.52.75.9,1,.38.25.83.4,1.31.42.04,0,.09,0,.13,0,.2,0,.39-.03.57-.07.03,0,.06-.01.09-.02,0,0,.02,0,.03,0,.01,0,.02,0,.03,0,.02,0,.04-.01.06-.02.03,0,.05-.02.08-.03.12-.04.23-.1.35-.16.06-.04.13-.07.18-.11.08-.05.16-.11.23-.17.03-.03.06-.05.09-.08.06-.06.13-.12.19-.19.02-.03.05-.05.07-.08.01-.02.03-.03.04-.05.02-.03.05-.06.07-.1.11-.15.2-.31.28-.48,0-.02.02-.04.03-.06.03-.08.06-.16.09-.25.01-.03.02-.07.03-.1,0,0,0-.02,0-.03,0-.02,0-.03.01-.04,0-.04.02-.08.03-.13,0-.04.01-.08.02-.12v-.03s.01-.05.01-.08c0,0,0-.02,0-.03,0-.01,0-.03,0-.04,0-.03,0-.06,0-.09,0-.04,0-.09,0-.13l-.03-3.87ZM113.92,8.34c-.13.24-.19.49-.12.73-.17-.27-.46-.46-.77-.52-.38-.08-.78,0-1.12.18-.25.12-.39.37-.58.57-.15-.44-.6-.73-1.06-.68.08-.78.01-1.53-.26-2.26.3-.48.42-1.07.32-1.63.55.53,1.27.79,2.03.87s1.67-.2,1.94-.92c-.07.48.12.93.4,1.33-.42.54-.35,1.3.08,1.83-.35,0-.69.2-.85.51Z"/>
        <path class="cls-16" d="M112.6,10.81h-.33c-.72,0-1.31-.59-1.31-1.31h0c0-.72.59-1.31,1.31-1.31h.33c.72,0,1.31.59,1.31,1.31h0c0,.72-.59,1.31-1.31,1.31Z"/>
        <path class="cls-2" d="M104.36,54.23c.49.23.91.59,1.3.97,3.55,3.42,5.7,8.26,5.85,13.2"/>
        <path class="cls-2" d="M121.61,54.38c-.49.23-.91.59-1.3.97-3.55,3.42-5.7,8.26-5.85,13.2"/>
        <ellipse class="cls-16" cx="112.44" cy="8.38" rx="2.45" ry="1.78"/>
        <path class="cls-22" d="M111.16,7.33c.03.65.56,1.16,1.21,1.16s1.18-.52,1.21-1.16h-2.42Z"/>
        <path class="cls-16" d="M104.31,13.87c-8.8,1.46-15.43,6.71-18.72,15-.85,2.13-7.98,15.95-8.67,19.79,2.36-.79,8.37-4.43,8.37-4.43,3.38-2.28,14.43-14.28,16.4-17.85,2.09-3.8,3.2-8.21,2.62-12.51Z"/>
      </g>
      <path class="cls-10" d="M107.67,13.5c.28.98,1,1.79,1.86,2.35,1.33.86,3.01,1.14,4.55.77,1.54-.38,2.9-1.41,3.68-2.79"/>
      <path class="cls-18" d="M73.96,69.99s16.21-15.06,29.17-16.39c0,0,9.17,6.87,8.73,14.95l-25.34,7.5s9.37,6.44,18.75,18.43c0,0-.49,6.92-.49,6.92-8.09-3.43-20.79-10.2-28.12-15.06-2.65-1.76-5.2-4.19-6.24-7.28-1.33-3.95.91-6.39,3.54-9.08Z"/>
      <g>
        <path class="cls-16" d="M81.25,43.15c5.01-4.29,18.44-4.38,23.91-8.05.59,1.43,1.69,3.94,2.28,5.37-1.42,5.37-10.61,10.63-30.42,9.47-.79-4.23,4.23-6.79,4.23-6.79Z"/>
        <path class="cls-18" d="M106.96,41.84c-1.07-1.99-1.97-4.05-2.51-6.24,1.01-.84,2.76-2.1,4.76-5.21-.01-2.53,1.16-5.04,2.9-6.88.04,2.84-.14,6.05-1.08,8.74-1.33,3.21-2.65,6.42-4.08,9.58Z"/>
        <path class="cls-16" d="M120.47,14.08c8.8,1.46,15.43,6.71,18.72,15,.85,2.13,7.98,15.95,8.67,19.79-2.36-.79-8.37-4.43-8.37-4.43-3.38-2.28-14.43-14.28-16.4-17.85-2.09-3.8-3.2-8.21-2.62-12.51Z"/>
        <path class="cls-16" d="M143.53,43.35c-5.01-4.29-18.9-3.83-24.48-8.73-.59,1.43-1.39,4.24-1.98,5.67,3.95,5.96,10.88,11.01,30.69,9.85.79-4.23-4.23-6.79-4.23-6.79Z"/>
        <path class="cls-18" d="M117.07,40.3c1.72-.39,2.92-2.97,2.94-4.93-1.51-1.71-3.29-3.56-4.85-5.12-.03-2.53-1.25-5.02-3.01-6.83,0,2.84.24,6.04,1.22,8.72,1.38,3.19,2.21,5.02,3.69,8.16Z"/>
      </g>
      <path class="cls-18" d="M111.09,68.23l-.25,74.73,6.96-6.11s6.43-35.44,9.23-55.87-3.53-32.98-5.97-30.42c0,0-8.28,3.27-9.97,17.67Z"/>
      <path class="cls-16" d="M118.4,87.33c.22-7.93-2.59-15.01-7.02-21.14-.11.65-.21,1.33-.3,2.04l-.19,55.72c.8-.38,1.53-.91,2.17-1.6,1.37-1.48,2.1-3.46,2.56-5.39.88-3.74.74-7.76.25-11.51-.41-3.19.12-6.14.98-9.22.82-2.96,1.46-5.81,1.55-8.9Z"/>
      <path class="cls-18" d="M112.91,119.39c-.24.51-.81.9-1.36.77-.73-.17-.99-1.06-1.11-1.8-.38-2.35-.68-4.74-1.67-6.9-.52-1.14-1.24-2.22-1.96-3.3-1.35-2.02-2.69-4.02-2.73-6.4-.42-.19-.82-.38-1.2-.59-.68-.38-1.3-.82-1.91-1.39l.02-.04,1.14-9.21,4.98,5.75.35.34s.02-.02.03-.03c1.06-.87,2.56-1.1,3.88-.48,1.83.86,2.61,3.04,1.75,4.87-.22.48-.54.88-.91,1.21-.41,1.3-.38,2.77-.11,4.13.39,1.95,1.2,3.79,1.66,5.72.46,1.93.51,4.09-.52,5.79.08.56-.09,1.05-.33,1.57Z"/>
      <path class="cls-5" d="M105.82,98.57c1.09-.38,2.42.08,3.04,1.05"/>
      <path class="cls-21" d="M101.54,52.79s-12.04,4.21-14.45,7.52l10.84,13.32,12.42-2.93-.23,12.94s18.36-.23,18.81-12.12c0,0-1.05-19.41-5.72-21.45l-21.82-.08.15,2.78Z"/>
      <path class="cls-18" d="M110.96,139.33c-.11.06-.09,3.3-.13,3.63-.2,1.49-.32,3.09-1.01,4.46-.65,1.28-1.9,2.07-2.58,3.33-1.05,1.95-.5,4.75,1.45,5.78l21.5.91s-.02-.04-.02-.06c-.17-.43-.54-.72-.99-.84-.28-.07-.54-.23-.76-.42-.39-.32-.7-.73-1.12-1.02-.82-.56-1.88-.56-2.88-.62-1.35-.08-2.72-.31-3.94-.9-1.22-.59-2.29-1.57-2.79-2.83-.25-.63-.35-1.3-.44-1.97-.62-4.54,1.11-10.92,1.12-15.5-1.71,1.71-5.32,4.83-7.41,6.05Z"/>
      <path class="cls-1" d="M113.56,147.16c-1.26.6-2.04,2.08-1.82,3.46.23,1.38,1.44,2.54,2.82,2.71"/>
      <path class="cls-5" d="M103.46,68.07c4.25,1.69,8.5,3.37,12.75,5.06"/>
    </g>
    <path class="cls-5" d="M123.51,50.61c-1.2,1.46-1.76,3.43-1.51,5.31.29,2.1,1.51,3.92,2.48,5.8.98,1.88,1.74,4.08,1.04,6.08-.73,2.12-2.85,3.36-4.41,4.98-2.4,2.5-3.52,6.17-2.91,9.58"/>
    <path class="cls-5" d="M92.94,57.15c4.42,1.9,9.7,2.62,13.93.33,3.32-1.8,5.5-5.18,6.87-8.7"/>
  </g>
</svg>