<?xml version="1.0" encoding="UTF-8"?>
<svg id="Layer_1" xmlns="http://www.w3.org/2000/svg" version="1.1" viewBox="0 0 1080 144.5">
  <!-- Generator: Adobe Illustrator 29.5.1, SVG Export Plug-In . SVG Version: 2.1.0 Build 141)  -->
  <defs>
    <style>
      .st0 {
        stroke: #000;
        stroke-miterlimit: 10;
        stroke-width: 2.6px;
      }
    </style>
  </defs>
  <path d="M193.2,8.5l-20.2,41.5c-1,2.1-3.2,3.4-5.5,3.4h-38.9c-4.6,0-7.5-4.8-5.5-8.9l16.1-33.4c2.1-4.1-.9-8.9-5.5-8.9H25.9c-2.3,0-4.4,1.3-5.5,3.4L.7,44.9c-2.1,4.1.9,8.9,5.5,8.9h43.7c4.6,0,7.5,4.8,5.5,8.9l-34.2,67.8c-2.1,4.1.9,8.9,5.5,8.9h44.4c2.3,0,4.4-1.3,5.5-3.4l21.2-42.1c1-2.1,3.2-3.4,5.5-3.4h38.9c4.6,0,7.5,4.8,5.5,8.9l-17.1,34c-2.1,4.1.9,8.9,5.5,8.9h44.4c2.3,0,4.4-1.3,5.5-3.4L248.5,14c2.1-4.1-.9-8.9-5.5-8.9h-44.4c-2.3,0-4.4,1.3-5.5,3.4Z"/>
  <g>
    <path class="st0" d="M350.4,49.5l-2.8,13.2h-22.3l-13,61.4h-15.7l13-61.4h-22.4l2.8-13.2h60.5Z"/>
    <path class="st0" d="M414.2,56.6c1.2,1.9,2.1,4,2.5,6.3.5,2.3.4,4.9-.2,7.8-.8,3.5-2.4,7-4.9,10.5-2.5,3.4-6,5.8-10.4,7.3,3.1,1.4,5.2,3.4,6.1,5.9.9,2.5.8,6.4-.3,11.7l-1.1,5c-.7,3.4-1.1,5.7-1.1,6.9,0,1.9.6,3.3,1.9,4.3l-.4,1.9h-17.2c-.1-1.7-.2-3-.2-4,0-2.1.3-4.2.7-6.4l1.4-6.9c.9-4.8.8-7.9-.6-9.5-1.3-1.6-4.3-2.4-8.9-2.4h-16.1l-6.2,29.3h-15.2l15.9-74.6h36.6c5.2.1,9.1.7,11.6,1.9,2.6,1.2,4.6,2.9,6.1,5.2ZM372.3,62.4l-4.3,20.1h17.7c3.5,0,6.2-.4,8.2-1.2,3.4-1.4,5.6-4.2,6.5-8.4.9-4.5,0-7.6-2.6-9.1-1.5-.9-4-1.3-7.3-1.3h-18.1Z"/>
    <path class="st0" d="M455.8,49.5h17.6l10.6,74.6h-16.9l-1.6-15.3h-27.5l-8.4,15.3h-16.3l42.5-74.6ZM444.9,95.9h18.9l-3.1-29.4-15.9,29.4Z"/>
    <path class="st0" d="M507.7,124.1h-15.5l15.9-74.6h15.5l-15.9,74.6Z"/>
    <path class="st0" d="M537.8,49.5h16.4l18.6,52.1,11.1-52.1h14.5l-15.9,74.6h-15.6l-19.2-53-11.2,53h-14.5l15.9-74.6Z"/>
    <path class="st0" d="M611.4,124.1h-15.5l15.9-74.6h15.5l-15.9,74.6Z"/>
    <path class="st0" d="M641.6,49.5h16.4l18.6,52.1,11.1-52.1h14.5l-15.9,74.6h-15.6l-19.2-53-11.2,53h-14.5l15.9-74.6Z"/>
    <path class="st0" d="M762,72.7c-.1-5.1-2.2-8.7-6.4-10.7-2.3-1.1-5.1-1.7-8.2-1.7-6,0-11.4,2.3-16.3,6.8-4.8,4.5-8.2,11.4-10.2,20.5-1.9,9.2-1.2,15.7,2.2,19.5,3.4,3.8,7.7,5.7,13,5.7s9.8-1.5,13.9-4.5c4-3,6.9-7,8.7-11.9h-17.3l2.7-12.5h31.1l-8.5,40.1h-10.3l.4-9.3c-3.8,3.5-7,6-9.7,7.5-4.7,2.5-10,3.8-16,3.8-9.9,0-17.3-3.4-22.1-10.3-5.1-6.9-6.4-16.3-3.8-28.3,2.6-12.1,8-21.8,16.2-29.1,8.2-7.3,17.8-10.9,28.7-10.9s16.6,2.4,21.3,7.2c4.7,4.8,6.8,10.8,6.1,18h-15.3Z"/>
    <path class="st0" d="M810.3,124.1l15.9-74.6h15.4l-6.1,28.5h29.2l6.1-28.5h15.5l-15.9,74.6h-15.5l7-33.3h-29.2l-7,33.3h-15.4Z"/>
    <path class="st0" d="M901.1,49.5h15.9l-9.8,45.9c-1.1,5.1-1.3,8.9-.6,11.2,1,4.2,4.7,6.3,11,6.3s10.9-2.1,13.6-6.3c1.7-2.4,3.1-6.1,4.2-11.2l9.8-45.9h15.9l-9.8,45.9c-1.7,7.9-4.2,14.1-7.6,18.5-6.3,8.1-15.9,12.2-28.9,12.2s-20.8-4.1-23.8-12.2c-1.5-4.4-1.4-10.6.3-18.5l9.8-45.9Z"/>
    <path class="st0" d="M1030.3,57.4c1.6,3.2,2,7,1.1,11.4-1,4.6-2.9,8.2-5.8,11-1.6,1.6-3.8,3-6.5,4.3,3.5,1.4,5.9,3.6,7.2,6.6,1.3,3,1.5,6.7.6,10.9-.9,4.4-2.9,8.4-5.9,11.9-1.9,2.3-4.1,4.3-6.6,5.9-2.8,1.8-5.8,3.1-9.2,3.7-3.4.7-7,1-10.8,1h-33.8l15.9-74.6h36.3c9.1.1,15,2.8,17.7,8ZM982.3,91.2l-4.2,19.9h18.3c3.3,0,5.9-.4,7.9-1.3,3.7-1.6,6-4.7,7-9.3.8-3.9-.2-6.5-3.1-8-1.6-.8-4.1-1.2-7.3-1.3h-18.6ZM988.4,62.4l-3.5,16.5h18.3c3.3,0,6.1-.6,8.4-1.8,2.3-1.2,3.8-3.4,4.5-6.6.7-3.5-.2-5.8-2.6-6.9-2.2-.8-5.1-1.2-8.7-1.2h-16.4Z"/>
  </g>
</svg>